<svg xmlns="http://www.w3.org/2000/svg" xmlns:xlink="http://www.w3.org/1999/xlink" width="300" height="284"><defs><path id="a" d="M0 0h276v228H0z"/></defs><g fill="none" fill-rule="evenodd"><g transform="translate(12 28)"><mask id="b" fill="#fff"><use xlink:href="#a"/></mask><use fill="#191E2A" xlink:href="#a"/><g mask="url(#b)"><path fill="#191E2A" stroke="#FFF" stroke-width=".5" d="M76.25 160.25h123.5v23.5H76.25z"/><path fill="#FED72A" fill-rule="nonzero" d="M178.89 171.53l-2.775-2.83h-.664l2.54 2.578h-4.79v.497h4.79l-2.53 2.577h.67"/><path fill="#FFF" d="M107.976 174h-.656v-4.8h.656v4.8zm1.8-4.12l.544-1.176h.704l-.64 1.368-.608-.192zm7.192 4.12h-.64v-3.816l-1.256 2.576h-.432l-1.24-2.576V174h-.648v-4.8h.832l1.28 2.616 1.288-2.616h.816v4.8zm5.648 0h-.656v-4.8h.656v4.8zm5.56 0h-.76l-2.016-3.664V174h-.648v-4.8h.776l2 3.704V169.2h.648v4.8zm2.832-1.32h-.624v-3.48h.624v3.48zm.088 1.32h-.816v-.784h.816V174zm8.352-1.072a.71.71 0 0 1-.112.416c-.096.144-.416.464-.576.56a1.01 1.01 0 0 1-.456.136h-1.072c-.152 0-.336-.064-.464-.136-.16-.096-.48-.416-.576-.56a.719.719 0 0 1-.12-.416V169.2h.656v3.712c0 .12.36.432.48.488.016.008.032.016.064.016h.992a.16.16 0 0 0 .072-.016c.12-.056.456-.376.456-.488V169.2h.656v3.728zm5.52 1.072h-.76l-2.016-3.664V174h-.648v-4.8h.776l2 3.704V169.2h.648v4.8zm6.36 0h-.64v-3.816l-1.256 2.576H149l-1.24-2.576V174h-.648v-4.8h.832l1.28 2.616 1.288-2.616h.816v4.8zm5.952 0h-.704l-.36-1.072h-2.08l-.368 1.072h-.696l1.672-4.8h.864l1.672 4.8zm-1.272-1.688l-.832-2.44-.832 2.44h1.664zm6.528.608a.752.752 0 0 1-.112.424 2.779 2.779 0 0 1-.584.56 1.01 1.01 0 0 1-.456.136h-1.336c-.424 0-.768-.352-.992-.648a2.626 2.626 0 0 1-.216-.416l.632-.168.072.144c.104.184.336.384.456.448.032.016.056.016.072.016h1.28a.15.15 0 0 0 .064-.016c.128-.064.464-.352.464-.488v-.488c0-.128-.088-.248-.184-.272l-2.176-.56c-.368-.096-.568-.464-.568-.816v-.488c0-.136.024-.296.112-.424.096-.144.424-.472.584-.568a1.01 1.01 0 0 1 .456-.136h1.176c.416 0 .76.352.984.648.064.08.128.2.224.408l-.64.184-.08-.16c-.088-.176-.336-.384-.456-.448 0 0-.024-.008-.056-.008h-1.112c-.032 0-.048.008-.072.016-.12.056-.464.368-.464.488v.456c0 .12.08.232.176.256l2.168.576c.36.096.584.448.584.8v.544zm2.752-1.624l1.872-2.096h.864l-2.184 2.4 2.192 2.4h-.864l-1.88-2.088h-.072V174h-.656v-4.8h.656v2.096h.072z"/></g><path fill="#FFF" d="M114.136 198.04c0 .16-.032.32-.128.456a2.483 2.483 0 0 1-.384.384.993.993 0 0 1-.552.16h-.8a.993.993 0 0 1-.552-.16 2.483 2.483 0 0 1-.384-.384.774.774 0 0 1-.128-.456v-1.528c0-.16.032-.32.128-.456.064-.088.264-.296.384-.384a.993.993 0 0 1 .552-.16h.8c.192 0 .408.056.552.16.12.088.32.296.384.384a.774.774 0 0 1 .128.456v1.528zm-.64.088c.016-.032.016-.08.016-.104v-1.496c0-.056-.008-.088-.024-.112a1.082 1.082 0 0 0-.312-.288.207.207 0 0 0-.112-.032h-.776a.203.203 0 0 0-.096.024c-.112.056-.28.208-.344.32a.187.187 0 0 0-.016.088v1.496c0 .048.008.072.016.088.056.112.232.264.344.32a.17.17 0 0 0 .096.024h.776a.17.17 0 0 0 .096-.024c.088-.048.288-.216.336-.304zm4.884-1.784l-.592.176c-.088-.168-.28-.424-.472-.424h-.432c-.168 0-.552.312-.632.432V199h-.624v-2.808l-.056-.64h.616l.04.28c.16-.152.4-.32.632-.32h.44c.192 0 .4.048.544.152.184.128.44.448.536.68zm6.368 2.656h-.624l-.032-.296c-.16.152-.4.336-.64.336h-.624a.973.973 0 0 1-.544-.168 2.483 2.483 0 0 1-.384-.384.79.79 0 0 1-.136-.464v-1.496c0-.168.04-.336.136-.464a2.51 2.51 0 0 1 .384-.392.967.967 0 0 1 .544-.16h.624c.224 0 .456.16.616.304V194.2h.624v4.16l.056.64zm-.68-.992v-1.456c-.08-.12-.472-.456-.64-.456h-.592c-.048 0-.064 0-.096.016a.988.988 0 0 0-.336.344.187.187 0 0 0-.016.088v1.464c0 .048.008.072.016.088.056.112.224.28.336.336a.17.17 0 0 0 .096.024h.592c.16 0 .56-.336.64-.448zm5.076.208c-.104.24-.328.528-.528.664a.967.967 0 0 1-.544.16h-.792a.993.993 0 0 1-.552-.16 2.483 2.483 0 0 1-.384-.384.749.749 0 0 1-.136-.456v-1.528c0-.168.04-.328.136-.456.064-.088.264-.296.384-.384a.993.993 0 0 1 .552-.16h.8c.192 0 .408.056.552.16.12.088.32.296.384.384a.774.774 0 0 1 .128.456v1.032h-2.312v.48c0 .048.008.072.016.088a.9.9 0 0 0 .328.32.221.221 0 0 0 .104.024h.808a.17.17 0 0 0 .096-.024.966.966 0 0 0 .328-.32l.048-.088.584.192zm-.624-1.24v-.448c0-.016 0-.072-.008-.088-.056-.112-.232-.264-.344-.32-.032-.016-.048-.024-.096-.024h-.792a.213.213 0 0 0-.096.024c-.16.088-.28.2-.336.32-.008.008-.016.04-.016.088v.448h1.688zm5.004 1.24a1.361 1.361 0 0 1-.152.28 2.407 2.407 0 0 1-.376.384.967.967 0 0 1-.544.16h-.816a.993.993 0 0 1-.552-.16 2.483 2.483 0 0 1-.384-.384.774.774 0 0 1-.128-.456v-1.528c0-.16.032-.32.128-.456.064-.088.264-.296.384-.384a.993.993 0 0 1 .552-.16h.792c.192 0 .4.056.544.16.184.128.44.44.536.672l-.584.184c-.088-.168-.288-.432-.48-.432h-.8c-.048 0-.064.008-.096.024a.921.921 0 0 0-.336.32c-.016.032-.016.04-.016.088v1.496c0 .048.008.072.016.088a.921.921 0 0 0 .336.32.17.17 0 0 0 .096.024h.824c.048 0 .072-.016.096-.024.152-.08.288-.248.376-.408l.584.192zm2.108-3.376h-.72v-.712h.72v.712zm-.048 4.16h-.624v-3.448h.624V199zm4.516 0h-.624l-.032-.296c-.16.152-.4.336-.64.336h-.624a.973.973 0 0 1-.544-.168 2.483 2.483 0 0 1-.384-.384.79.79 0 0 1-.136-.464v-1.496c0-.168.04-.336.136-.464a2.51 2.51 0 0 1 .384-.392.967.967 0 0 1 .544-.16h.624c.224 0 .456.16.616.304V194.2h.624v4.16l.056.64zm-.68-.992v-1.456c-.08-.12-.472-.456-.64-.456h-.592c-.048 0-.064 0-.096.016a.988.988 0 0 0-.336.344.187.187 0 0 0-.016.088v1.464c0 .048.008.072.016.088.056.112.224.28.336.336a.17.17 0 0 0 .096.024h.592c.16 0 .56-.336.64-.448zm5.076.208c-.104.24-.328.528-.528.664a.967.967 0 0 1-.544.16h-.792a.993.993 0 0 1-.552-.16 2.483 2.483 0 0 1-.384-.384.749.749 0 0 1-.136-.456v-1.528c0-.168.04-.328.136-.456.064-.088.264-.296.384-.384a.993.993 0 0 1 .552-.16h.8c.192 0 .408.056.552.16.12.088.32.296.384.384a.774.774 0 0 1 .128.456v1.032h-2.312v.48c0 .048.008.072.016.088a.9.9 0 0 0 .328.32.221.221 0 0 0 .104.024h.808a.17.17 0 0 0 .096-.024.966.966 0 0 0 .328-.32l.048-.088.584.192zm-.624-1.24v-.448c0-.016 0-.072-.008-.088-.056-.112-.232-.264-.344-.32-.032-.016-.048-.024-.096-.024h-.792a.213.213 0 0 0-.096.024c-.16.088-.28.2-.336.32-.008.008-.016.04-.016.088v.448h1.688zm5.176 2.024h-.624l-.072-.52v-4.28h.616v4.184l.08.616zm4.404 0h-.616l-.04-.272c-.16.136-.4.312-.624.312h-.704a.967.967 0 0 1-.544-.16 2.38 2.38 0 0 1-.376-.376.749.749 0 0 1-.136-.456v-.152c0-.168.04-.328.136-.456a2.38 2.38 0 0 1 .376-.376.961.961 0 0 1 .544-.152h1.296v-.392c0-.024 0-.064-.024-.104a.972.972 0 0 0-.328-.296c-.032-.016-.048-.024-.096-.024h-.752c-.144 0-.288.168-.368.272-.04.048-.104.144-.104.144l-.584-.176c.096-.232.36-.552.528-.672.152-.104.36-.152.552-.152h.736c.192 0 .408.056.552.16.12.088.32.288.384.376a.8.8 0 0 1 .128.464v1.856l.064.632zm-.688-.96v-.56h-1.288a.261.261 0 0 0-.096.016.989.989 0 0 0-.328.328c-.008.016-.016.032-.016.08v.136c0 .048.008.064.016.08.056.112.216.248.328.312.024.008.048.024.096.024h.672a.16.16 0 0 0 .072-.016c.136-.064.432-.24.544-.4zm4.116-1.904h-1.056v1.832c0 .056.008.088.016.104a.877.877 0 0 0 .32.32.293.293 0 0 0 .112.024h.56V199h-.568a.967.967 0 0 1-.544-.16 2.51 2.51 0 0 1-.384-.392.79.79 0 0 1-.136-.464v-1.848h-.568v-.584h.568V194.2h.624v1.352h1.056v.584zm4.204 2.08c-.104.24-.328.528-.528.664a.967.967 0 0 1-.544.16h-.792a.993.993 0 0 1-.552-.16 2.483 2.483 0 0 1-.384-.384.749.749 0 0 1-.136-.456v-1.528c0-.168.04-.328.136-.456.064-.088.264-.296.384-.384a.993.993 0 0 1 .552-.16h.8c.192 0 .408.056.552.16.12.088.32.296.384.384a.774.774 0 0 1 .128.456v1.032h-2.312v.48c0 .048.008.072.016.088a.9.9 0 0 0 .328.32.221.221 0 0 0 .104.024h.808a.17.17 0 0 0 .096-.024.966.966 0 0 0 .328-.32l.048-.088.584.192zm-.624-1.24v-.448c0-.016 0-.072-.008-.088-.056-.112-.232-.264-.344-.32-.032-.016-.048-.024-.096-.024h-.792a.213.213 0 0 0-.096.024c-.16.088-.28.2-.336.32-.008.008-.016.04-.016.088v.448h1.688zm4.852-.632l-.592.176c-.088-.168-.28-.424-.472-.424h-.432c-.168 0-.552.312-.632.432V199h-.624v-2.808l-.056-.64h.616l.04.28c.16-.152.4-.32.632-.32h.44c.192 0 .4.048.544.152.184.128.44.448.536.68z" mask="url(#b)" opacity=".7"/><path fill="#FFF" fill-rule="nonzero" d="M164.866 34.182h-3.582V31h-6.717l-3.134 3.182H148.3L146.506 36v-1.818h-3.134V31H131.73v3.182h-14.326L114.716 31H108v13.636l3.134 3.182L116.06 51h4.477v-.91l1.79.91h8.51l1.342-1.818V51H138v-1.818L139.79 51h4.926l.448-1.818 1.79 1.818h5.374l1.79-1.818V51h2.688l2.687-1.818V51h3.582L168 47.364v-10l-3.134-3.182zm-48.806 5h-3.135v3.636h3.135v3.637h-4.478l-2.24-2.273V32.364h3.583v3.18h3.135v3.638zm15.224 5l-2.24 2.273h-11.64v-10.91h3.58v7.273h1.344v-7.273h4.03v7.273h1.342v-7.273h3.584v8.637zm5.373 2.273h-3.582v-10.91h3.582v10.91zm0-12.273h-3.582v-1.818h3.582v1.818zm8.06 5h-3.137v3.636h3.134v3.637h-4.474L138 44.182V32.364h3.582v3.18h3.134v3.638h.001zm9.85 0h-4.477v3.636h4.477v3.637h-5.82l-2.24-2.273v-6.364l2.24-2.273h5.82v3.637zm12.09 7.273h-4.03v-7.273h-2.687v7.273h-4.03v-14.09h4.03v3.18h4.478l2.24 2.273v8.637h-.001z" mask="url(#b)"/></g><g fill="#FFF"><path d="M59.78 134l-1.87 3.44V140h-.58v-2.56L55.47 134h.64l1.51 2.85 1.53-2.85h.63zm4.1 4.85c0 .2-.04.38-.14.53-.08.11-.31.38-.45.48-.16.12-.4.19-.62.19h-1c-.22 0-.46-.07-.62-.19-.14-.1-.37-.37-.45-.48a.935.935 0 0 1-.14-.53v-2c0-.2.04-.38.14-.53.08-.11.31-.38.45-.48.16-.12.4-.19.62-.19h1c.22 0 .46.07.62.19.14.1.37.37.45.48.1.15.14.33.14.53v2zm-.54-.02v-1.96c0-.07 0-.13-.02-.17a1.5 1.5 0 0 0-.48-.49.342.342 0 0 0-.18-.04h-.98c-.07 0-.13.01-.18.04-.16.09-.38.32-.47.49-.02.04-.03.1-.03.17v1.96c0 .07.01.13.03.17.09.17.31.4.47.49.05.03.11.04.18.04h.98c.07 0 .13-.01.18-.04.16-.09.39-.32.48-.49.02-.04.02-.1.02-.17zm5.28 1.17h-.54l-.06-.5c-.12.13-.26.26-.37.34-.14.1-.33.21-.5.21h-.75c-.22 0-.46-.07-.62-.19-.14-.1-.37-.37-.45-.48a.935.935 0 0 1-.14-.53v-3.15h.54v3.13c0 .07 0 .13.02.17.09.17.32.4.48.49.05.03.11.04.18.04h.71c.05 0 .1-.01.14-.03.17-.09.6-.36.75-.6v-3.2h.54v3.59l.07.71zm1.16-4.99l.6-1.49H71l-.69 1.68-.53-.19zm3.88 4.44l1.18-3.75h.57l-1.4 4.3h-.75l-1.42-4.3h.58l1.18 3.75h.06zm5.62-.45l.01-.02.53.18c-.04.08-.08.13-.14.22-.08.11-.31.38-.45.48-.16.12-.39.19-.61.19H77.6c-.22 0-.46-.07-.62-.19-.14-.1-.37-.37-.45-.48a.94.94 0 0 1-.15-.53v-2c0-.2.05-.38.15-.53.08-.11.31-.38.45-.48.16-.12.4-.19.62-.19h1c.22 0 .46.07.62.19.14.1.37.37.45.48.1.15.14.33.14.53v1.23h-2.89v.75c0 .07.01.13.03.17.09.17.31.4.47.49.05.03.1.04.17.04h1.05c.07 0 .13-.01.18-.04.16-.09.38-.34.46-.49zm-2.33-2.3c-.02.04-.03.1-.03.17v.7h2.35v-.7c0-.07 0-.13-.02-.17a1.5 1.5 0 0 0-.48-.49.342.342 0 0 0-.18-.04h-.99c-.07 0-.12.01-.17.04a1.5 1.5 0 0 0-.48.49zm9.8 2.68c-.08.11-.31.38-.45.48-.16.12-.39.19-.61.19h-.78c-.17 0-.36-.11-.5-.21a3.13 3.13 0 0 1-.39-.36v2.2h-.54v-5.27l-.06-.71h.54l.06.53c.13-.14.27-.28.39-.37.14-.1.33-.21.5-.21h.78c.22 0 .45.07.61.19.14.1.37.37.45.48.1.15.15.33.15.53v2c0 .2-.05.38-.15.53zm-.39-2.51c0-.07-.01-.13-.03-.17-.09-.17-.31-.4-.47-.49a.342.342 0 0 0-.18-.04h-.74c-.05 0-.1.01-.14.03-.17.09-.62.37-.76.61-.01.02-.02.04-.02.06v1.97c0 .02.01.03.02.05.14.25.59.52.76.61.04.02.09.03.14.03h.74c.07 0 .13-.01.18-.04.16-.09.38-.32.47-.49.02-.04.03-.1.03-.17v-1.96zm5.27 3.13h-.54l-.09-.5c-.12.13-.27.26-.38.34-.15.11-.32.21-.49.21h-.88c-.23 0-.45-.07-.61-.19-.13-.11-.36-.36-.44-.47a.94.94 0 0 1-.15-.53v-.2c0-.21.05-.38.15-.53.08-.11.31-.36.44-.47.16-.12.38-.19.61-.19h1.74v-.61c0-.08-.01-.13-.02-.16a1.5 1.5 0 0 0-.48-.49.342.342 0 0 0-.18-.04h-.94c-.07 0-.12.01-.17.04-.16.09-.37.33-.48.5l-.52-.17c.03-.05.08-.14.15-.23.09-.13.31-.37.45-.48.16-.12.37-.18.6-.18h.92c.23 0 .46.07.62.19.15.09.37.36.45.47.11.15.14.34.14.54v2.44l.1.71zm-1.39-.5c.16-.08.62-.37.75-.61v-.91h-1.73c-.07 0-.13.01-.18.04-.16.09-.37.31-.46.48a.35.35 0 0 0-.03.16v.2c0 .07.01.12.03.16.09.17.3.38.46.47.05.03.11.04.18.04h.84c.05 0 .1-.01.14-.03zm6.08-.61c0 .2-.05.38-.15.53-.08.11-.27.34-.41.44-.16.12-.4.19-.61.19h-1.2c-.21 0-.45-.07-.61-.19-.14-.1-.36-.36-.44-.47-.05-.08-.12-.18-.14-.23l.52-.18c.08.17.31.42.47.51.05.03.11.04.18.04h1.21c.07 0 .12-.01.17-.04.16-.09.35-.28.44-.45.02-.04.03-.1.03-.17v-.36c0-.2-.17-.35-.38-.37l-1.65-.12c-.49-.04-.87-.42-.87-.91v-.3c0-.2.05-.38.15-.53.08-.11.27-.34.41-.44.16-.12.4-.19.61-.19h1.04c.21 0 .45.07.61.19.14.1.37.37.45.48.06.08.12.17.14.22l-.52.18c-.08-.17-.32-.42-.48-.51a.306.306 0 0 0-.17-.04h-1.06c-.07 0-.13.01-.18.04-.16.09-.34.27-.43.44-.02.04-.03.1-.03.17v.3c0 .2.17.35.38.37l1.65.13c.49.04.87.42.87.91v.36zm4.67 0c0 .2-.05.38-.15.53-.08.11-.27.34-.41.44-.16.12-.4.19-.61.19h-1.2c-.21 0-.45-.07-.61-.19-.14-.1-.36-.36-.44-.47-.05-.08-.12-.18-.14-.23l.52-.18c.08.17.31.42.47.51.05.03.11.04.18.04h1.21c.07 0 .12-.01.17-.04.16-.09.35-.28.44-.45.02-.04.03-.1.03-.17v-.36c0-.2-.17-.35-.38-.37l-1.65-.12c-.49-.04-.87-.42-.87-.91v-.3c0-.2.05-.38.15-.53.08-.11.27-.34.41-.44.16-.12.4-.19.61-.19h1.04c.21 0 .45.07.61.19.14.1.37.37.45.48.06.08.12.17.14.22l-.52.18c-.08-.17-.32-.42-.48-.51a.306.306 0 0 0-.17-.04h-1.06c-.07 0-.13.01-.18.04-.16.09-.34.27-.43.44-.02.04-.03.1-.03.17v.3c0 .2.17.35.38.37l1.65.13c.49.04.87.42.87.91v.36zm4.15.11l.01-.02.53.18c-.04.08-.08.13-.14.22-.08.11-.31.38-.45.48-.16.12-.39.19-.61.19h-1.02c-.22 0-.46-.07-.62-.19-.14-.1-.37-.37-.45-.48a.94.94 0 0 1-.15-.53v-2c0-.2.05-.38.15-.53.08-.11.31-.38.45-.48.16-.12.4-.19.62-.19h1c.22 0 .46.07.62.19.14.1.37.37.45.48.1.15.14.33.14.53v1.23h-2.89v.75c0 .07.01.13.03.17.09.17.31.4.47.49.05.03.1.04.17.04h1.05c.07 0 .13-.01.18-.04.16-.09.38-.34.46-.49zm-2.33-2.3c-.02.04-.03.1-.03.17v.7h2.35v-.7c0-.07 0-.13-.02-.17a1.5 1.5 0 0 0-.48-.49.342.342 0 0 0-.18-.04h-.99c-.07 0-.12.01-.17.04a1.5 1.5 0 0 0-.48.49zm4.29-.38c.08-.11.32-.37.45-.48.16-.12.38-.19.61-.19h.78c.17 0 .35.1.5.21.12.09.25.21.39.36V134h.54v5.29l.06.71h-.54l-.06-.53c-.13.15-.27.28-.39.37-.15.11-.33.21-.5.21h-.78c-.23 0-.45-.07-.61-.19-.13-.11-.37-.37-.45-.48a.94.94 0 0 1-.15-.53v-2c0-.21.05-.38.15-.53zm.39 2.51c0 .07.01.13.03.17.09.17.31.4.47.49.05.03.11.04.18.04h.74c.05 0 .1-.01.14-.03.16-.08.63-.37.76-.61 0 0 .01-.02.02-.05v-1.98a.42.42 0 0 0-.02-.05c-.13-.24-.6-.53-.76-.61a.32.32 0 0 0-.14-.03h-.74c-.07 0-.13.01-.18.04-.16.09-.38.32-.47.49-.02.04-.03.1-.03.17v1.96zm8.84-2.61h-1.32v2.56c0 .07.01.15.03.19.09.17.29.38.45.47.05.03.13.04.2.04h.63v.52h-.64c-.22 0-.45-.07-.61-.19-.14-.1-.37-.37-.45-.48a.94.94 0 0 1-.15-.53v-2.58h-.71v-.52h.71V134h.54v1.7h1.32v.52zm4.46 3.78h-.54v-3.13c0-.07-.01-.13-.03-.17-.09-.17-.31-.4-.47-.49a.342.342 0 0 0-.18-.04h-.68c-.05 0-.11.01-.15.03-.17.09-.61.36-.75.61-.01.01-.01.03-.02.04V140h-.54v-6h.54v2.22c.13-.14.27-.27.39-.36.14-.1.33-.21.5-.21h.72c.21 0 .45.07.61.19.14.1.37.37.45.48.1.15.15.33.15.53V140zm4.23-1l.01-.02.53.18c-.04.08-.08.13-.14.22-.08.11-.31.38-.45.48-.16.12-.39.19-.61.19h-1.02c-.22 0-.46-.07-.62-.19-.14-.1-.37-.37-.45-.48a.94.94 0 0 1-.15-.53v-2c0-.2.05-.38.15-.53.08-.11.31-.38.45-.48.16-.12.4-.19.62-.19h1c.22 0 .46.07.62.19.14.1.37.37.45.48.1.15.14.33.14.53v1.23h-2.89v.75c0 .07.01.13.03.17.09.17.31.4.47.49.05.03.1.04.17.04h1.05c.07 0 .13-.01.18-.04.16-.09.38-.34.46-.49zm-2.33-2.3c-.02.04-.03.1-.03.17v.7h2.35v-.7c0-.07 0-.13-.02-.17a1.5 1.5 0 0 0-.48-.49.342.342 0 0 0-.18-.04h-.99c-.07 0-.12.01-.17.04a1.5 1.5 0 0 0-.48.49zm8.74-.48h-1.32v2.56c0 .07.01.15.03.19.09.17.29.38.45.47.05.03.13.04.2.04h.63v.52h-.64c-.22 0-.45-.07-.61-.19-.14-.1-.37-.37-.45-.48a.94.94 0 0 1-.15-.53v-2.58h-.71v-.52h.71V134h.54v1.7h1.32v.52zm3.95 2.78l.01-.02.53.18c-.04.08-.08.13-.14.22-.08.11-.31.38-.45.48-.16.12-.39.19-.61.19h-1.02c-.22 0-.46-.07-.62-.19-.14-.1-.37-.37-.45-.48a.94.94 0 0 1-.15-.53v-2c0-.2.05-.38.15-.53.08-.11.31-.38.45-.48.16-.12.4-.19.62-.19h1c.22 0 .46.07.62.19.14.1.37.37.45.48.1.15.14.33.14.53v1.23h-2.89v.75c0 .07.01.13.03.17.09.17.31.4.47.49.05.03.1.04.17.04h1.05c.07 0 .13-.01.18-.04.16-.09.38-.34.46-.49zm-2.33-2.3c-.02.04-.03.1-.03.17v.7h2.35v-.7c0-.07 0-.13-.02-.17a1.5 1.5 0 0 0-.48-.49.342.342 0 0 0-.18-.04h-.99c-.07 0-.12.01-.17.04a1.5 1.5 0 0 0-.48.49zm7.57 2.46c-.12.22-.35.53-.59.7-.16.12-.39.19-.61.19h-1.02c-.22 0-.46-.07-.62-.19-.14-.1-.37-.37-.45-.48a.935.935 0 0 1-.14-.53v-2c0-.2.04-.38.14-.53.08-.11.31-.38.45-.48.16-.12.4-.19.62-.19h.99c.22 0 .45.07.61.19.25.18.46.5.59.71l-.52.17c-.08-.17-.32-.42-.48-.51a.342.342 0 0 0-.18-.04h-1c-.07 0-.13.01-.18.04-.16.09-.38.32-.47.49-.02.04-.03.1-.03.17v1.96c0 .07.01.13.03.17.09.17.3.4.46.49.05.03.11.04.18.04h1.04c.07 0 .13-.01.18-.04.16-.09.4-.34.47-.49l.01-.02.52.18zm4.54.84h-.54v-3.13c0-.07-.01-.13-.03-.17-.09-.17-.31-.4-.47-.49a.342.342 0 0 0-.18-.04h-.68c-.05 0-.11.01-.15.03-.17.09-.61.36-.75.61-.01.01-.01.03-.02.04V140h-.54v-6h.54v2.22c.13-.14.27-.27.39-.36.14-.1.33-.21.5-.21h.72c.21 0 .45.07.61.19.14.1.37.37.45.48.1.15.15.33.15.53V140zm4.81 0h-.54v-3.13c0-.07 0-.13-.02-.17a1.5 1.5 0 0 0-.48-.49.342.342 0 0 0-.18-.04h-.71c-.05 0-.1.01-.14.03-.17.09-.6.36-.75.6v3.2h-.54v-3.59l-.07-.71h.54l.06.5c.12-.13.26-.26.37-.34.14-.1.33-.21.5-.21h.75c.22 0 .46.07.62.19.14.1.37.37.45.48.1.15.14.33.14.53V140zm2.05 0h-.54v-4.3h.54v4.3zm.11-5.28h-.76v-.77h.76v.77zm4.7 4.44c-.12.22-.35.53-.59.7-.16.12-.39.19-.61.19h-1.02c-.22 0-.46-.07-.62-.19-.14-.1-.37-.37-.45-.48a.935.935 0 0 1-.14-.53v-2c0-.2.04-.38.14-.53.08-.11.31-.38.45-.48.16-.12.4-.19.62-.19h.99c.22 0 .45.07.61.19.25.18.46.5.59.71l-.52.17c-.08-.17-.32-.42-.48-.51a.342.342 0 0 0-.18-.04h-1c-.07 0-.13.01-.18.04-.16.09-.38.32-.47.49-.02.04-.03.1-.03.17v1.96c0 .07.01.13.03.17.09.17.3.4.46.49.05.03.11.04.18.04h1.04c.07 0 .13-.01.18-.04.16-.09.4-.34.47-.49l.01-.02.52.18zm4.56.84h-.54l-.09-.5c-.12.13-.27.26-.38.34-.15.11-.32.21-.49.21h-.88c-.23 0-.45-.07-.61-.19-.13-.11-.36-.36-.44-.47a.94.94 0 0 1-.15-.53v-.2c0-.21.05-.38.15-.53.08-.11.31-.36.44-.47.16-.12.38-.19.61-.19h1.74v-.61c0-.08-.01-.13-.02-.16a1.5 1.5 0 0 0-.48-.49.342.342 0 0 0-.18-.04h-.94c-.07 0-.12.01-.17.04-.16.09-.37.33-.48.5l-.52-.17c.03-.05.08-.14.15-.23.09-.13.31-.37.45-.48.16-.12.37-.18.6-.18h.92c.23 0 .46.07.62.19.15.09.37.36.45.47.11.15.14.34.14.54v2.44l.1.71zm-1.39-.5c.16-.08.62-.37.75-.61v-.91h-1.73c-.07 0-.13.01-.18.04-.16.09-.37.31-.46.48a.35.35 0 0 0-.03.16v.2c0 .07.01.12.03.16.09.17.3.38.46.47.05.03.11.04.18.04h.84c.05 0 .1-.01.14-.03zm3.4.5h-.54c-.02-.17-.09-.39-.09-.56V134h.54v5.32c0 .22.07.46.09.68zm4.27 0h-.54v-4.3h.54v4.3zm.11-5.28h-.76v-.77h.76v.77zm4.75 5.28h-.54v-3.13c0-.07 0-.13-.02-.17a1.5 1.5 0 0 0-.48-.49.342.342 0 0 0-.18-.04h-.71c-.05 0-.1.01-.14.03-.17.09-.6.36-.75.6v3.2h-.54v-3.59l-.07-.71h.54l.06.5c.12-.13.26-.26.37-.34.14-.1.33-.21.5-.21h.75c.22 0 .46.07.62.19.14.1.37.37.45.48.1.15.14.33.14.53V140zm3.65-3.78h-1.32v2.56c0 .07.01.15.03.19.09.17.29.38.45.47.05.03.13.04.2.04h.63v.52h-.64c-.22 0-.45-.07-.61-.19-.14-.1-.37-.37-.45-.48a.94.94 0 0 1-.15-.53v-2.58h-.71v-.52h.71V134h.54v1.7h1.32v.52zm3.95 2.78l.01-.02.53.18c-.04.08-.08.13-.14.22-.08.11-.31.38-.45.48-.16.12-.39.19-.61.19h-1.02c-.22 0-.46-.07-.62-.19-.14-.1-.37-.37-.45-.48a.94.94 0 0 1-.15-.53v-2c0-.2.05-.38.15-.53.08-.11.31-.38.45-.48.16-.12.4-.19.62-.19h1c.22 0 .46.07.62.19.14.1.37.37.45.48.1.15.14.33.14.53v1.23h-2.89v.75c0 .07.01.13.03.17.09.17.31.4.47.49.05.03.1.04.17.04h1.05c.07 0 .13-.01.18-.04.16-.09.38-.34.46-.49zm-2.33-2.3c-.02.04-.03.1-.03.17v.7h2.35v-.7c0-.07 0-.13-.02-.17a1.5 1.5 0 0 0-.48-.49.342.342 0 0 0-.18-.04h-.99c-.07 0-.12.01-.17.04a1.5 1.5 0 0 0-.48.49zm7.37-.16l-.52.17c-.1-.15-.32-.41-.48-.5a.342.342 0 0 0-.18-.04h-.49c-.05 0-.11.01-.15.03-.17.09-.62.36-.76.61V140h-.54v-3.59l-.07-.71h.55l.06.51c.13-.13.26-.27.38-.35.14-.1.33-.21.5-.21h.5c.22 0 .45.07.61.19.14.1.36.37.44.48.06.08.12.17.15.22zm2.45 2.91l1.18-3.75h.57l-1.4 4.3h-.75l-1.42-4.3h.58l1.18 3.75h.06zm3.44.55h-.54v-4.3h.54v4.3zm.11-5.28h-.76v-.77h.76v.77zm4.17 4.28l.01-.02.53.18c-.04.08-.08.13-.14.22-.08.11-.31.38-.45.48-.16.12-.39.19-.61.19h-1.02c-.22 0-.46-.07-.62-.19-.14-.1-.37-.37-.45-.48a.94.94 0 0 1-.15-.53v-2c0-.2.05-.38.15-.53.08-.11.31-.38.45-.48.16-.12.4-.19.62-.19h1c.22 0 .46.07.62.19.14.1.37.37.45.48.1.15.14.33.14.53v1.23h-2.89v.75c0 .07.01.13.03.17.09.17.31.4.47.49.05.03.1.04.17.04h1.05c.07 0 .13-.01.18-.04.16-.09.38-.34.46-.49zm-2.33-2.3c-.02.04-.03.1-.03.17v.7h2.35v-.7c0-.07 0-.13-.02-.17a1.5 1.5 0 0 0-.48-.49.342.342 0 0 0-.18-.04h-.99c-.07 0-.12.01-.17.04a1.5 1.5 0 0 0-.48.49zm9.88-1l-1.21 4.3h-.75l-1.06-3.67-1.02 3.67h-.75l-1.25-4.3h.58l1.02 3.72h.06l.98-3.72h.77l1.02 3.72h.06l.98-3.72h.57zm6.63 4.3h-.54l-.09-.5c-.12.13-.27.26-.38.34-.15.11-.32.21-.49.21h-.88c-.23 0-.45-.07-.61-.19-.13-.11-.36-.36-.44-.47a.94.94 0 0 1-.15-.53v-.2c0-.21.05-.38.15-.53.08-.11.31-.36.44-.47.16-.12.38-.19.61-.19h1.74v-.61c0-.08-.01-.13-.02-.16a1.5 1.5 0 0 0-.48-.49.342.342 0 0 0-.18-.04h-.94c-.07 0-.12.01-.17.04-.16.09-.37.33-.48.5l-.52-.17c.03-.05.08-.14.15-.23.09-.13.31-.37.45-.48.16-.12.37-.18.6-.18h.92c.23 0 .46.07.62.19.15.09.37.36.45.47.11.15.14.34.14.54v2.44l.1.71zm-1.39-.5c.16-.08.62-.37.75-.61v-.91h-1.73c-.07 0-.13.01-.18.04-.16.09-.37.31-.46.48a.35.35 0 0 0-.03.16v.2c0 .07.01.12.03.16.09.17.3.38.46.47.05.03.11.04.18.04h.84c.05 0 .1-.01.14-.03zm4.98-3.28h-1.32v2.56c0 .07.01.15.03.19.09.17.29.38.45.47.05.03.13.04.2.04h.63v.52h-.64c-.22 0-.45-.07-.61-.19-.14-.1-.37-.37-.45-.48a.94.94 0 0 1-.15-.53v-2.58h-.71v-.52h.71V134h.54v1.7h1.32v.52zm7.06-1.66h-1.71V140h-.58v-5.44h-1.71V134h4v.56zm6.71 1.14l-1.21 4.3h-.75l-1.06-3.67-1.02 3.67h-.75l-1.25-4.3h.58l1.02 3.72h.06l.98-3.72h.77l1.02 3.72h.06l.98-3.72h.57zm1.64 4.3h-.54v-4.3h.54v4.3zm.11-5.28h-.76v-.77h.76v.77zm3.59 1.5h-1.32v2.56c0 .07.01.15.03.19.09.17.29.38.45.47.05.03.13.04.2.04h.63v.52h-.64c-.22 0-.45-.07-.61-.19-.14-.1-.37-.37-.45-.48a.94.94 0 0 1-.15-.53v-2.58h-.71v-.52h.71V134h.54v1.7h1.32v.52zm4.48 2.94c-.12.22-.35.53-.59.7-.16.12-.39.19-.61.19h-1.02c-.22 0-.46-.07-.62-.19-.14-.1-.37-.37-.45-.48a.935.935 0 0 1-.14-.53v-2c0-.2.04-.38.14-.53.08-.11.31-.38.45-.48.16-.12.4-.19.62-.19h.99c.22 0 .45.07.61.19.25.18.46.5.59.71l-.52.17c-.08-.17-.32-.42-.48-.51a.342.342 0 0 0-.18-.04h-1c-.07 0-.13.01-.18.04-.16.09-.38.32-.47.49-.02.04-.03.1-.03.17v1.96c0 .07.01.13.03.17.09.17.3.4.46.49.05.03.11.04.18.04h1.04c.07 0 .13-.01.18-.04.16-.09.4-.34.47-.49l.01-.02.52.18zm4.54.84h-.54v-3.13c0-.07-.01-.13-.03-.17-.09-.17-.31-.4-.47-.49a.342.342 0 0 0-.18-.04h-.68c-.05 0-.11.01-.15.03-.17.09-.61.36-.75.61-.01.01-.01.03-.02.04V140h-.54v-6h.54v2.22c.13-.14.27-.27.39-.36.14-.1.33-.21.5-.21h.72c.21 0 .45.07.61.19.14.1.37.37.45.48.1.15.15.33.15.53V140zm2.16 0h-.78v-.78h.78v.78zm-203.525 8l-1.3 6h-.83l-1.22-5.23-1.18 5.23h-.83l-1.33-6h.6l1.12 5.37h.06l1.18-5.37h.75l1.23 5.37h.06l1.07-5.37h.62zm4.35 4.85c0 .2-.04.38-.14.53-.08.11-.31.38-.45.48-.16.12-.4.19-.62.19h-1c-.22 0-.46-.07-.62-.19-.14-.1-.37-.37-.45-.48a.935.935 0 0 1-.14-.53v-2c0-.2.04-.38.14-.53.08-.11.31-.38.45-.48.16-.12.4-.19.62-.19h1c.22 0 .46.07.62.19.14.1.37.37.45.48.1.15.14.33.14.53v2zm-.54-.02v-1.96c0-.07 0-.13-.02-.17a1.5 1.5 0 0 0-.48-.49.342.342 0 0 0-.18-.04h-.98c-.07 0-.13.01-.18.04-.16.09-.38.32-.47.49-.02.04-.03.1-.03.17v1.96c0 .07.01.13.03.17.09.17.31.4.47.49.05.03.11.04.18.04h.98c.07 0 .13-.01.18-.04.16-.09.39-.32.48-.49.02-.04.02-.1.02-.17zm5.28 1.17h-.54l-.06-.5c-.12.13-.26.26-.37.34-.14.1-.33.21-.5.21h-.75c-.22 0-.46-.07-.62-.19-.14-.1-.37-.37-.45-.48a.935.935 0 0 1-.14-.53v-3.15h.54v3.13c0 .07 0 .13.02.17.09.17.32.4.48.49.05.03.11.04.18.04h.71c.05 0 .1-.01.14-.03.17-.09.6-.36.75-.6v-3.2h.54v3.59l.07.71zm2.04 0h-.54c-.02-.17-.09-.39-.09-.56V148h.54v5.32c0 .22.07.46.09.68zm1.42-3.68c.08-.11.32-.37.45-.48.16-.12.38-.19.61-.19h.78c.17 0 .35.1.5.21.12.09.25.21.39.36V148h.54v5.29l.06.71h-.54l-.06-.53c-.13.15-.27.28-.39.37-.15.11-.33.21-.5.21h-.78c-.23 0-.45-.07-.61-.19-.13-.11-.37-.37-.45-.48a.94.94 0 0 1-.15-.53v-2c0-.21.05-.38.15-.53zm.39 2.51c0 .07.01.13.03.17.09.17.31.4.47.49.05.03.11.04.18.04h.74c.05 0 .1-.01.14-.03.16-.08.63-.37.76-.61 0 0 .01-.02.02-.05v-1.98a.42.42 0 0 0-.02-.05c-.13-.24-.6-.53-.76-.61a.32.32 0 0 0-.14-.03h-.74c-.07 0-.13.01-.18.04-.16.09-.38.32-.47.49-.02.04-.03.1-.03.17v1.96zm9.22-3.13h.58l-1.95 5.98h-.57l.57-1.68h-.23l-1.4-4.3h.58l1.18 3.75h.06l1.18-3.75zm4.95 3.15c0 .2-.04.38-.14.53-.08.11-.31.38-.45.48-.16.12-.4.19-.62.19h-1c-.22 0-.46-.07-.62-.19-.14-.1-.37-.37-.45-.48a.935.935 0 0 1-.14-.53v-2c0-.2.04-.38.14-.53.08-.11.31-.38.45-.48.16-.12.4-.19.62-.19h1c.22 0 .46.07.62.19.14.1.37.37.45.48.1.15.14.33.14.53v2zm-.54-.02v-1.96c0-.07 0-.13-.02-.17a1.5 1.5 0 0 0-.48-.49.342.342 0 0 0-.18-.04h-.98c-.07 0-.13.01-.18.04-.16.09-.38.32-.47.49-.02.04-.03.1-.03.17v1.96c0 .07.01.13.03.17.09.17.31.4.47.49.05.03.11.04.18.04h.98c.07 0 .13-.01.18-.04.16-.09.39-.32.48-.49.02-.04.02-.1.02-.17zm5.28 1.17h-.54l-.06-.5c-.12.13-.26.26-.37.34-.14.1-.33.21-.5.21h-.75c-.22 0-.46-.07-.62-.19-.14-.1-.37-.37-.45-.48a.935.935 0 0 1-.14-.53v-3.15h.54v3.13c0 .07 0 .13.02.17.09.17.32.4.48.49.05.03.11.04.18.04h.71c.05 0 .1-.01.14-.03.17-.09.6-.36.75-.6v-3.2h.54v3.59l.07.71zm4.32 0h-.54c-.02-.17-.09-.39-.09-.56V148h.54v5.32c0 .22.07.46.09.68zm1.99 0h-.54v-4.3h.54v4.3zm.11-5.28h-.76v-.77h.76v.77zm4.67 5.28h-.73l-1.86-1.99h-.21V154h-.54v-6h.54v3.5h.2l1.71-1.8h.72l-1.96 2.04 2.13 2.26zm3.75-1l.01-.02.53.18c-.04.08-.08.13-.14.22-.08.11-.31.38-.45.48-.16.12-.39.19-.61.19h-1.02c-.22 0-.46-.07-.62-.19-.14-.1-.37-.37-.45-.48a.94.94 0 0 1-.15-.53v-2c0-.2.05-.38.15-.53.08-.11.31-.38.45-.48.16-.12.4-.19.62-.19h1c.22 0 .46.07.62.19.14.1.37.37.45.48.1.15.14.33.14.53v1.23h-2.89v.75c0 .07.01.13.03.17.09.17.31.4.47.49.05.03.1.04.17.04h1.05c.07 0 .13-.01.18-.04.16-.09.38-.34.46-.49zm-2.33-2.3c-.02.04-.03.1-.03.17v.7h2.35v-.7c0-.07 0-.13-.02-.17a1.5 1.5 0 0 0-.48-.49.342.342 0 0 0-.18-.04h-.99c-.07 0-.12.01-.17.04a1.5 1.5 0 0 0-.48.49zm8.74-.48h-1.32v2.56c0 .07.01.15.03.19.09.17.29.38.45.47.05.03.13.04.2.04h.63v.52h-.64c-.22 0-.45-.07-.61-.19-.14-.1-.37-.37-.45-.48a.94.94 0 0 1-.15-.53v-2.58h-.71v-.52h.71V148h.54v1.7h1.32v.52zm4.47 2.63c0 .2-.04.38-.14.53-.08.11-.31.38-.45.48-.16.12-.4.19-.62.19h-1c-.22 0-.46-.07-.62-.19-.14-.1-.37-.37-.45-.48a.935.935 0 0 1-.14-.53v-2c0-.2.04-.38.14-.53.08-.11.31-.38.45-.48.16-.12.4-.19.62-.19h1c.22 0 .46.07.62.19.14.1.37.37.45.48.1.15.14.33.14.53v2zm-.54-.02v-1.96c0-.07 0-.13-.02-.17a1.5 1.5 0 0 0-.48-.49.342.342 0 0 0-.18-.04h-.98c-.07 0-.13.01-.18.04-.16.09-.38.32-.47.49-.02.04-.03.1-.03.17v1.96c0 .07.01.13.03.17.09.17.31.4.47.49.05.03.11.04.18.04h.98c.07 0 .13-.01.18-.04.16-.09.39-.32.48-.49.02-.04.02-.1.02-.17zm7.56 1.17h-.54l-.06-.5c-.12.13-.26.26-.37.34-.14.1-.33.21-.5.21h-.75c-.22 0-.46-.07-.62-.19-.14-.1-.37-.37-.45-.48a.935.935 0 0 1-.14-.53v-3.15h.54v3.13c0 .07 0 .13.02.17.09.17.32.4.48.49.05.03.11.04.18.04h.71c.05 0 .1-.01.14-.03.17-.09.6-.36.75-.6v-3.2h.54v3.59l.07.71zm4.78 0h-.54v-3.13c0-.07 0-.13-.02-.17a1.5 1.5 0 0 0-.48-.49.342.342 0 0 0-.18-.04h-.71c-.05 0-.1.01-.14.03-.17.09-.6.36-.75.6v3.2h-.54v-3.59l-.07-.71h.54l.06.5c.12-.13.26-.26.37-.34.14-.1.33-.21.5-.21h.75c.22 0 .46.07.62.19.14.1.37.37.45.48.1.15.14.33.14.53V154zm3.34-3.83h-.47c-.05 0-.1.01-.14.03-.17.09-.6.36-.75.6v3.2h-.54v-3.59l-.06-.71h.54l.06.51c.12-.13.27-.27.38-.35.14-.1.32-.21.49-.21h.5c.21 0 .46.07.62.19.14.1.37.37.45.48l.01.02c.15-.17.34-.37.49-.48.14-.1.33-.21.5-.21h.47c.21 0 .46.07.62.19.14.1.37.37.45.48.1.15.14.33.14.53V154h-.54v-3.13c0-.07-.01-.13-.03-.17-.09-.17-.31-.41-.47-.5-.05-.03-.11-.03-.18-.03h-.43c-.05 0-.11.01-.15.03-.16.09-.59.35-.74.59V154h-.53v-3.13c0-.07-.01-.13-.03-.17-.09-.17-.32-.41-.48-.5-.05-.03-.11-.03-.18-.03zm8.54 3.83h-.54l-.09-.5c-.12.13-.27.26-.38.34-.15.11-.32.21-.49.21h-.88c-.23 0-.45-.07-.61-.19-.13-.11-.36-.36-.44-.47a.94.94 0 0 1-.15-.53v-.2c0-.21.05-.38.15-.53.08-.11.31-.36.44-.47.16-.12.38-.19.61-.19h1.74v-.61c0-.08-.01-.13-.02-.16a1.5 1.5 0 0 0-.48-.49.342.342 0 0 0-.18-.04h-.94c-.07 0-.12.01-.17.04-.16.09-.37.33-.48.5l-.52-.17c.03-.05.08-.14.15-.23.09-.13.31-.37.45-.48.16-.12.37-.18.6-.18h.92c.23 0 .46.07.62.19.15.09.37.36.45.47.11.15.14.34.14.54v2.44l.1.71zm-1.39-.5c.16-.08.62-.37.75-.61v-.91h-1.73c-.07 0-.13.01-.18.04-.16.09-.37.31-.46.48a.35.35 0 0 0-.03.16v.2c0 .07.01.12.03.16.09.17.3.38.46.47.05.03.11.04.18.04h.84c.05 0 .1-.01.14-.03zm6.08-.61c0 .2-.05.38-.15.53-.08.11-.27.34-.41.44-.16.12-.4.19-.61.19h-1.2c-.21 0-.45-.07-.61-.19-.14-.1-.36-.36-.44-.47-.05-.08-.12-.18-.14-.23l.52-.18c.08.17.31.42.47.51.05.03.11.04.18.04h1.21c.07 0 .12-.01.17-.04.16-.09.35-.28.44-.45.02-.04.03-.1.03-.17v-.36c0-.2-.17-.35-.38-.37l-1.65-.12c-.49-.04-.87-.42-.87-.91v-.3c0-.2.05-.38.15-.53.08-.11.27-.34.41-.44.16-.12.4-.19.61-.19h1.04c.21 0 .45.07.61.19.14.1.37.37.45.48.06.08.12.17.14.22l-.52.18c-.08-.17-.32-.42-.48-.51a.306.306 0 0 0-.17-.04h-1.06c-.07 0-.13.01-.18.04-.16.09-.34.27-.43.44-.02.04-.03.1-.03.17v.3c0 .2.17.35.38.37l1.65.13c.49.04.87.42.87.91v.36zm4.65 1.11h-.73l-1.86-1.99h-.21V154h-.54v-6h.54v3.5h.2l1.71-1.8h.72l-1.96 2.04 2.13 2.26zm6.56 0h-.54l-.09-.5c-.12.13-.27.26-.38.34-.15.11-.32.21-.49.21h-.88c-.23 0-.45-.07-.61-.19-.13-.11-.36-.36-.44-.47a.94.94 0 0 1-.15-.53v-.2c0-.21.05-.38.15-.53.08-.11.31-.36.44-.47.16-.12.38-.19.61-.19h1.74v-.61c0-.08-.01-.13-.02-.16a1.5 1.5 0 0 0-.48-.49.342.342 0 0 0-.18-.04h-.94c-.07 0-.12.01-.17.04-.16.09-.37.33-.48.5l-.52-.17c.03-.05.08-.14.15-.23.09-.13.31-.37.45-.48.16-.12.37-.18.6-.18h.92c.23 0 .46.07.62.19.15.09.37.36.45.47.11.15.14.34.14.54v2.44l.1.71zm-1.39-.5c.16-.08.62-.37.75-.61v-.91h-1.73c-.07 0-.13.01-.18.04-.16.09-.37.31-.46.48a.35.35 0 0 0-.03.16v.2c0 .07.01.12.03.16.09.17.3.38.46.47.05.03.11.04.18.04h.84c.05 0 .1-.01.14-.03zm6.14.5h-.54v-3.13c0-.07 0-.13-.02-.17a1.5 1.5 0 0 0-.48-.49.342.342 0 0 0-.18-.04h-.71c-.05 0-.1.01-.14.03-.17.09-.6.36-.75.6v3.2h-.54v-3.59l-.07-.71h.54l.06.5c.12-.13.26-.26.37-.34.14-.1.33-.21.5-.21h.75c.22 0 .46.07.62.19.14.1.37.37.45.48.1.15.14.33.14.53V154zm1.48-3.68c.08-.11.32-.37.45-.48.16-.12.38-.19.61-.19h.78c.17 0 .35.1.5.21.12.09.25.21.39.36V148h.54v5.29l.06.71h-.54l-.06-.53c-.13.15-.27.28-.39.37-.15.11-.33.21-.5.21h-.78c-.23 0-.45-.07-.61-.19-.13-.11-.37-.37-.45-.48a.94.94 0 0 1-.15-.53v-2c0-.21.05-.38.15-.53zm.39 2.51c0 .07.01.13.03.17.09.17.31.4.47.49.05.03.11.04.18.04h.74c.05 0 .1-.01.14-.03.16-.08.63-.37.76-.61 0 0 .01-.02.02-.05v-1.98c-.01-.03-.02-.05-.02-.05-.13-.24-.6-.53-.76-.61a.32.32 0 0 0-.14-.03h-.74c-.07 0-.13.01-.18.04-.16.09-.38.32-.47.49-.02.04-.03.1-.03.17v1.96zm9.94.06c0 .2-.05.38-.15.53-.08.11-.27.34-.41.44-.16.12-.4.19-.61.19h-1.2c-.21 0-.45-.07-.61-.19-.14-.1-.36-.36-.44-.47-.05-.08-.12-.18-.14-.23l.52-.18c.08.17.31.42.47.51.05.03.11.04.18.04h1.21c.07 0 .12-.01.17-.04.16-.09.35-.28.44-.45.02-.04.03-.1.03-.17v-.36c0-.2-.17-.35-.38-.37l-1.65-.12c-.49-.04-.87-.42-.87-.91v-.3c0-.2.05-.38.15-.53.08-.11.27-.34.41-.44.16-.12.4-.19.61-.19h1.04c.21 0 .45.07.61.19.14.1.37.37.45.48.06.08.12.17.14.22l-.52.18c-.08-.17-.32-.42-.48-.51a.306.306 0 0 0-.17-.04h-1.06c-.07 0-.13.01-.18.04-.16.09-.34.27-.43.44-.02.04-.03.1-.03.17v.3c0 .2.17.35.38.37l1.65.13c.49.04.87.42.87.91v.36zm4.68.27c-.12.22-.35.53-.59.7-.16.12-.39.19-.61.19h-1.02c-.22 0-.46-.07-.62-.19-.14-.1-.37-.37-.45-.48a.935.935 0 0 1-.14-.53v-2c0-.2.04-.38.14-.53.08-.11.31-.38.45-.48.16-.12.4-.19.62-.19h.99c.22 0 .45.07.61.19.25.18.46.5.59.71l-.52.17c-.08-.17-.32-.42-.48-.51a.342.342 0 0 0-.18-.04h-1c-.07 0-.13.01-.18.04-.16.09-.38.32-.47.49-.02.04-.03.1-.03.17v1.96c0 .07.01.13.03.17.09.17.3.4.46.49.05.03.11.04.18.04h1.04c.07 0 .13-.01.18-.04.16-.09.4-.34.47-.49l.01-.02.52.18zm4.54.84h-.54v-3.13c0-.07-.01-.13-.03-.17-.09-.17-.31-.4-.47-.49a.342.342 0 0 0-.18-.04h-.68c-.05 0-.11.01-.15.03-.17.09-.61.36-.75.61-.01.01-.01.03-.02.04V154h-.54v-6h.54v2.22c.13-.14.27-.27.39-.36.14-.1.33-.21.5-.21h.72c.21 0 .45.07.61.19.14.1.37.37.45.48.1.15.15.33.15.53V154zm4.23-1l.01-.02.53.18c-.04.08-.08.13-.14.22-.08.11-.31.38-.45.48-.16.12-.39.19-.61.19h-1.02c-.22 0-.46-.07-.62-.19-.14-.1-.37-.37-.45-.48a.94.94 0 0 1-.15-.53v-2c0-.2.05-.38.15-.53.08-.11.31-.38.45-.48.16-.12.4-.19.62-.19h1c.22 0 .46.07.62.19.14.1.37.37.45.48.1.15.14.33.14.53v1.23h-2.89v.75c0 .07.01.13.03.17.09.17.31.4.47.49.05.03.1.04.17.04h1.05c.07 0 .13-.01.18-.04.16-.09.38-.34.46-.49zm-2.33-2.3c-.02.04-.03.1-.03.17v.7h2.35v-.7c0-.07 0-.13-.02-.17a1.5 1.5 0 0 0-.48-.49.342.342 0 0 0-.18-.04h-.99c-.07 0-.12.01-.17.04a1.5 1.5 0 0 0-.48.49zm4.29-.38c.08-.11.32-.37.45-.48.16-.12.38-.19.61-.19h.78c.17 0 .35.1.5.21.12.09.25.21.39.36V148h.54v5.29l.06.71h-.54l-.06-.53c-.13.15-.27.28-.39.37-.15.11-.33.21-.5.21h-.78c-.23 0-.45-.07-.61-.19-.13-.11-.37-.37-.45-.48a.94.94 0 0 1-.15-.53v-2c0-.21.05-.38.15-.53zm.39 2.51c0 .07.01.13.03.17.09.17.31.4.47.49.05.03.11.04.18.04h.74c.05 0 .1-.01.14-.03.16-.08.63-.37.76-.61 0 0 .01-.02.02-.05v-1.98c-.01-.03-.02-.05-.02-.05-.13-.24-.6-.53-.76-.61a.32.32 0 0 0-.14-.03h-.74c-.07 0-.13.01-.18.04-.16.09-.38.32-.47.49-.02.04-.03.1-.03.17v1.96zm7.68 1.17h-.54l-.06-.5c-.12.13-.26.26-.37.34-.14.1-.33.21-.5.21h-.75c-.22 0-.46-.07-.62-.19-.14-.1-.37-.37-.45-.48a.935.935 0 0 1-.14-.53v-3.15h.54v3.13c0 .07 0 .13.02.17.09.17.32.4.48.49.05.03.11.04.18.04h.71c.05 0 .1-.01.14-.03.17-.09.6-.36.75-.6v-3.2h.54v3.59l.07.71zm2.04 0h-.54c-.02-.17-.09-.39-.09-.56V148h.54v5.32c0 .22.07.46.09.68zm4.17-1l.01-.02.53.18c-.04.08-.08.13-.14.22-.08.11-.31.38-.45.48-.16.12-.39.19-.61.19h-1.02c-.22 0-.46-.07-.62-.19-.14-.1-.37-.37-.45-.48a.94.94 0 0 1-.15-.53v-2c0-.2.05-.38.15-.53.08-.11.31-.38.45-.48.16-.12.4-.19.62-.19h1c.22 0 .46.07.62.19.14.1.37.37.45.48.1.15.14.33.14.53v1.23h-2.89v.75c0 .07.01.13.03.17.09.17.31.4.47.49.05.03.1.04.17.04h1.05c.07 0 .13-.01.18-.04.16-.09.38-.34.46-.49zm-2.33-2.3c-.02.04-.03.1-.03.17v.7h2.35v-.7c0-.07 0-.13-.02-.17a1.5 1.5 0 0 0-.48-.49.342.342 0 0 0-.18-.04h-.99c-.07 0-.12.01-.17.04a1.5 1.5 0 0 0-.48.49zm9.85 3.3h-.54l-.09-.5c-.12.13-.27.26-.38.34-.15.11-.32.21-.49.21h-.88c-.23 0-.45-.07-.61-.19-.13-.11-.36-.36-.44-.47a.94.94 0 0 1-.15-.53v-.2c0-.21.05-.38.15-.53.08-.11.31-.36.44-.47.16-.12.38-.19.61-.19h1.74v-.61c0-.08-.01-.13-.02-.16a1.5 1.5 0 0 0-.48-.49.342.342 0 0 0-.18-.04h-.94c-.07 0-.12.01-.17.04-.16.09-.37.33-.48.5l-.52-.17c.03-.05.08-.14.15-.23.09-.13.31-.37.45-.48.16-.12.37-.18.6-.18h.92c.23 0 .46.07.62.19.15.09.37.36.45.47.11.15.14.34.14.54v2.44l.1.71zm-1.39-.5c.16-.08.62-.37.75-.61v-.91h-1.73c-.07 0-.13.01-.18.04-.16.09-.37.31-.46.48a.35.35 0 0 0-.03.16v.2c0 .07.01.12.03.16.09.17.3.38.46.47.05.03.11.04.18.04h.84c.05 0 .1-.01.14-.03zm6.14.5h-.54v-3.13c0-.07 0-.13-.02-.17a1.5 1.5 0 0 0-.48-.49.342.342 0 0 0-.18-.04h-.71c-.05 0-.1.01-.14.03-.17.09-.6.36-.75.6v3.2h-.54v-3.59l-.07-.71h.54l.06.5c.12-.13.26-.26.37-.34.14-.1.33-.21.5-.21h.75c.22 0 .46.07.62.19.14.1.37.37.45.48.1.15.14.33.14.53V154zm7.03-1.15c0 .2-.04.38-.14.53-.08.11-.31.38-.45.48-.16.12-.4.19-.62.19h-1c-.22 0-.46-.07-.62-.19-.14-.1-.37-.37-.45-.48a.935.935 0 0 1-.14-.53v-2c0-.2.04-.38.14-.53.08-.11.31-.38.45-.48.16-.12.4-.19.62-.19h1c.22 0 .46.07.62.19.14.1.37.37.45.48.1.15.14.33.14.53v2zm-.54-.02v-1.96c0-.07 0-.13-.02-.17a1.5 1.5 0 0 0-.48-.49.342.342 0 0 0-.18-.04h-.98c-.07 0-.13.01-.18.04-.16.09-.38.32-.47.49-.02.04-.03.1-.03.17v1.96c0 .07.01.13.03.17.09.17.31.4.47.49.05.03.11.04.18.04h.98c.07 0 .13-.01.18-.04.16-.09.39-.32.48-.49.02-.04.02-.1.02-.17zm5.32 1.17h-.54v-3.13c0-.07 0-.13-.02-.17a1.5 1.5 0 0 0-.48-.49.342.342 0 0 0-.18-.04h-.71c-.05 0-.1.01-.14.03-.17.09-.6.36-.75.6v3.2h-.54v-3.59l-.07-.71h.54l.06.5c.12-.13.26-.26.37-.34.14-.1.33-.21.5-.21h.75c.22 0 .46.07.62.19.14.1.37.37.45.48.1.15.14.33.14.53V154zm4.75-1.11c0 .2-.05.38-.15.53-.08.11-.27.34-.41.44-.16.12-.4.19-.61.19h-1.2c-.21 0-.45-.07-.61-.19-.14-.1-.36-.36-.44-.47-.05-.08-.12-.18-.14-.23l.52-.18c.08.17.31.42.47.51.05.03.11.04.18.04h1.21c.07 0 .12-.01.17-.04.16-.09.35-.28.44-.45.02-.04.03-.1.03-.17v-.36c0-.2-.17-.35-.38-.37l-1.65-.12c-.49-.04-.87-.42-.87-.91v-.3c0-.2.05-.38.15-.53.08-.11.27-.34.41-.44.16-.12.4-.19.61-.19h1.04c.21 0 .45.07.61.19.14.1.37.37.45.48.06.08.12.17.14.22l-.52.18c-.08-.17-.32-.42-.48-.51a.306.306 0 0 0-.17-.04h-1.06c-.07 0-.13.01-.18.04-.16.09-.34.27-.43.44-.02.04-.03.1-.03.17v.3c0 .2.17.35.38.37l1.65.13c.49.04.87.42.87.91v.36zm1.97 1.11h-.54v-4.3h.54v4.3zm.11-5.28h-.76v-.77h.76v.77zm3.59 1.5h-1.32v2.56c0 .07.01.15.03.19.09.17.29.38.45.47.05.03.13.04.2.04h.63v.52h-.64c-.22 0-.45-.07-.61-.19-.14-.1-.37-.37-.45-.48a.94.94 0 0 1-.15-.53v-2.58h-.71v-.52h.71V148h.54v1.7h1.32v.52zm3.95 2.78l.01-.02.53.18c-.04.08-.08.13-.14.22-.08.11-.31.38-.45.48-.16.12-.39.19-.61.19h-1.02c-.22 0-.46-.07-.62-.19-.14-.1-.37-.37-.45-.48a.94.94 0 0 1-.15-.53v-2c0-.2.05-.38.15-.53.08-.11.31-.38.45-.48.16-.12.4-.19.62-.19h1c.22 0 .46.07.62.19.14.1.37.37.45.48.1.15.14.33.14.53v1.23h-2.89v.75c0 .07.01.13.03.17.09.17.31.4.47.49.05.03.1.04.17.04h1.05c.07 0 .13-.01.18-.04.16-.09.38-.34.46-.49zm-2.33-2.3c-.02.04-.03.1-.03.17v.7h2.35v-.7c0-.07 0-.13-.02-.17a1.5 1.5 0 0 0-.48-.49.342.342 0 0 0-.18-.04h-.99c-.07 0-.12.01-.17.04a1.5 1.5 0 0 0-.48.49zm7.14 3.3h-.54v-4.3h.54v4.3zm.11-5.28h-.76v-.77h.76v.77zm4.75 5.28h-.54v-3.13c0-.07 0-.13-.02-.17a1.5 1.5 0 0 0-.48-.49.342.342 0 0 0-.18-.04h-.71c-.05 0-.1.01-.14.03-.17.09-.6.36-.75.6v3.2h-.54v-3.59l-.07-.71h.54l.06.5c.12-.13.26-.26.37-.34.14-.1.33-.21.5-.21h.75c.22 0 .46.07.62.19.14.1.37.37.45.48.1.15.14.33.14.53V154zm3.65-3.78h-1.32v2.56c0 .07.01.15.03.19.09.17.29.38.45.47.05.03.13.04.2.04h.63v.52h-.64c-.22 0-.45-.07-.61-.19-.14-.1-.37-.37-.45-.48a.94.94 0 0 1-.15-.53v-2.58h-.71v-.52h.71V148h.54v1.7h1.32v.52zm3.95 2.78l.01-.02.53.18c-.04.08-.08.13-.14.22-.08.11-.31.38-.45.48-.16.12-.39.19-.61.19h-1.02c-.22 0-.46-.07-.62-.19-.14-.1-.37-.37-.45-.48a.94.94 0 0 1-.15-.53v-2c0-.2.05-.38.15-.53.08-.11.31-.38.45-.48.16-.12.4-.19.62-.19h1c.22 0 .46.07.62.19.14.1.37.37.45.48.1.15.14.33.14.53v1.23h-2.89v.75c0 .07.01.13.03.17.09.17.31.4.47.49.05.03.1.04.17.04h1.05c.07 0 .13-.01.18-.04.16-.09.38-.34.46-.49zm-2.33-2.3c-.02.04-.03.1-.03.17v.7h2.35v-.7c0-.07 0-.13-.02-.17a1.5 1.5 0 0 0-.48-.49.342.342 0 0 0-.18-.04h-.99c-.07 0-.12.01-.17.04a1.5 1.5 0 0 0-.48.49zm7.37-.16l-.52.17c-.1-.15-.32-.41-.48-.5a.342.342 0 0 0-.18-.04h-.49c-.05 0-.11.01-.15.03-.17.09-.62.36-.76.61V154h-.54v-3.59l-.07-.71h.55l.06.51c.13-.13.26-.27.38-.35.14-.1.33-.21.5-.21h.5c.22 0 .45.07.61.19.14.1.36.37.44.48.06.08.12.17.15.22zm2.45 2.91l1.18-3.75h.57l-1.4 4.3h-.75l-1.42-4.3h.58l1.18 3.75h.06zm3.44.55h-.54v-4.3h.54v4.3zm.11-5.28h-.76v-.77h.76v.77zm4.17 4.28l.01-.02.53.18c-.04.08-.08.13-.14.22-.08.11-.31.38-.45.48-.16.12-.39.19-.61.19h-1.02c-.22 0-.46-.07-.62-.19-.14-.1-.37-.37-.45-.48a.94.94 0 0 1-.15-.53v-2c0-.2.05-.38.15-.53.08-.11.31-.38.45-.48.16-.12.4-.19.62-.19h1c.22 0 .46.07.62.19.14.1.37.37.45.48.1.15.14.33.14.53v1.23h-2.89v.75c0 .07.01.13.03.17.09.17.31.4.47.49.05.03.1.04.17.04h1.05c.07 0 .13-.01.18-.04.16-.09.38-.34.46-.49zm-2.33-2.3c-.02.04-.03.1-.03.17v.7h2.35v-.7c0-.07 0-.13-.02-.17a1.5 1.5 0 0 0-.48-.49.342.342 0 0 0-.18-.04h-.99c-.07 0-.12.01-.17.04a1.5 1.5 0 0 0-.48.49zm9.88-1l-1.21 4.3h-.75l-1.06-3.67-1.02 3.67h-.75l-1.25-4.3h.58l1.02 3.72h.06l.98-3.72h.77l1.02 3.72h.06l.98-3.72h.57zm4.63.18c0 .42-.28.76-.63.94l-.66.35c-.17.09-.32.27-.32.47v.66h-.58v-.71c0-.42.24-.73.63-.93l.68-.35c.17-.09.3-.26.3-.46v-.63a.43.43 0 0 0-.03-.17 1.5 1.5 0 0 0-.48-.49.329.329 0 0 0-.17-.04h-1.19c-.05 0-.12.01-.15.03-.21.11-.55.48-.67.76l-.57-.17c.18-.38.47-.75.84-1.02.13-.1.36-.16.52-.16h1.23c.21 0 .44.07.6.19.13.1.43.42.5.53.1.15.15.33.15.52v.68zm-1.52 4.12h-.76v-.76h.76v.76z" opacity=".6"/><path d="M47.31 121.285l-.765-2.363h-4.726l-.782 2.363H40l3.417-10.2h1.53l3.417 10.2H47.31zm-5.185-3.315h4.114l-1.955-5.916h-.221l-1.938 5.916zm13.566 3.315h-.918v-5.321c0-.119 0-.221-.034-.289-.153-.289-.544-.68-.816-.833a.582.582 0 0 0-.306-.068H52.41a.543.543 0 0 0-.238.051c-.289.153-1.02.612-1.275 1.02v5.44h-.918v-6.103l-.119-1.207h.918l.102.85c.204-.221.442-.442.629-.578.238-.17.561-.357.85-.357h1.275c.374 0 .782.119 1.054.323.238.17.629.629.765.816.17.255.238.561.238.901v5.355zm8.075-1.955c0 .34-.068.646-.238.901-.136.187-.527.646-.765.816-.272.204-.68.323-1.054.323h-1.7c-.374 0-.782-.119-1.054-.323-.238-.17-.629-.629-.765-.816-.17-.255-.238-.561-.238-.901v-3.4c0-.34.068-.646.238-.901.136-.187.527-.646.765-.816.272-.204.68-.323 1.054-.323h1.7c.374 0 .782.119 1.054.323.238.17.629.629.765.816.17.255.238.561.238.901v3.4zm-.918-.034v-3.332c0-.119 0-.221-.034-.289-.153-.289-.544-.68-.816-.833a.582.582 0 0 0-.306-.068h-1.666a.582.582 0 0 0-.306.068c-.272.153-.646.544-.799.833a.677.677 0 0 0-.051.289v3.332c0 .119.017.221.051.289.153.289.527.68.799.833a.582.582 0 0 0 .306.068h1.666a.582.582 0 0 0 .306-.068c.272-.153.663-.544.816-.833.034-.068.034-.17.034-.289zm9.044 1.989h-.918v-5.321c0-.119 0-.221-.034-.289-.153-.289-.544-.68-.816-.833a.582.582 0 0 0-.306-.068h-1.207a.543.543 0 0 0-.238.051c-.289.153-1.02.612-1.275 1.02v5.44h-.918v-6.103l-.119-1.207h.918l.102.85c.204-.221.442-.442.629-.578.238-.17.561-.357.85-.357h1.275c.374 0 .782.119 1.054.323.238.17.629.629.765.816.17.255.238.561.238.901v5.355zm6.851-7.31h.986l-3.315 10.166h-.969l.969-2.856h-.391l-2.38-7.31h.986l2.006 6.375h.102l2.006-6.375zm6.018.799h-.799a.543.543 0 0 0-.238.051c-.289.153-1.02.612-1.275 1.02v5.44h-.918v-6.103l-.102-1.207h.918l.102.867c.204-.221.459-.459.646-.595.238-.17.544-.357.833-.357h.85c.357 0 .782.119 1.054.323.238.17.629.629.765.816l.017.034c.255-.289.578-.629.833-.816.238-.17.561-.357.85-.357h.799c.357 0 .782.119 1.054.323.238.17.629.629.765.816.17.255.238.561.238.901v5.355h-.918v-5.321a.677.677 0 0 0-.051-.289c-.153-.289-.527-.697-.799-.85-.085-.051-.187-.051-.306-.051h-.731a.621.621 0 0 0-.255.051c-.272.153-1.003.595-1.258 1.003v5.457h-.901v-5.321a.677.677 0 0 0-.051-.289c-.153-.289-.544-.697-.816-.85-.085-.051-.187-.051-.306-.051zm14.501 4.556c0 .34-.068.646-.238.901-.136.187-.527.646-.765.816-.272.204-.68.323-1.054.323h-1.7c-.374 0-.782-.119-1.054-.323-.238-.17-.629-.629-.765-.816-.17-.255-.238-.561-.238-.901v-3.4c0-.34.068-.646.238-.901.136-.187.527-.646.765-.816.272-.204.68-.323 1.054-.323h1.7c.374 0 .782.119 1.054.323.238.17.629.629.765.816.17.255.238.561.238.901v3.4zm-.918-.034v-3.332c0-.119 0-.221-.034-.289-.153-.289-.544-.68-.816-.833a.582.582 0 0 0-.306-.068h-1.666a.582.582 0 0 0-.306.068c-.272.153-.646.544-.799.833a.677.677 0 0 0-.051.289v3.332c0 .119.017.221.051.289.153.289.527.68.799.833a.582.582 0 0 0 .306.068h1.666a.582.582 0 0 0 .306-.068c.272-.153.663-.544.816-.833.034-.068.034-.17.034-.289zm8.976 1.989h-.918l-.102-.85a4.753 4.753 0 0 1-.629.578c-.238.17-.561.357-.85.357h-1.275c-.374 0-.782-.119-1.054-.323-.238-.17-.629-.629-.765-.816-.17-.255-.238-.561-.238-.901v-5.355h.918v5.321c0 .119 0 .221.034.289.153.289.544.68.816.833a.582.582 0 0 0 .306.068h1.207c.085 0 .17-.017.238-.051.289-.153 1.02-.612 1.275-1.02v-5.44h.918v6.103l.119 1.207zm8.024-1.887a1.6 1.6 0 0 1-.255.901c-.136.187-.459.578-.697.748-.272.204-.68.323-1.037.323h-2.04c-.357 0-.765-.119-1.037-.323-.238-.17-.612-.612-.748-.799-.085-.136-.204-.306-.238-.391l.884-.306c.136.289.527.714.799.867a.582.582 0 0 0 .306.068h2.057a.52.52 0 0 0 .289-.068c.272-.153.595-.476.748-.765a.677.677 0 0 0 .051-.289v-.612c0-.34-.289-.595-.646-.629l-2.805-.204c-.833-.068-1.479-.714-1.479-1.547v-.51c0-.34.085-.646.255-.901.136-.187.459-.578.697-.748.272-.204.68-.323 1.037-.323h1.768c.357 0 .765.119 1.037.323.238.17.629.629.765.816.102.136.204.289.238.374l-.884.306c-.136-.289-.544-.714-.816-.867a.52.52 0 0 0-.289-.068h-1.802a.582.582 0 0 0-.306.068 2.057 2.057 0 0 0-.731.748.677.677 0 0 0-.051.289v.51c0 .34.289.595.646.629l2.805.221c.833.068 1.479.714 1.479 1.547v.612zm7.225 1.887h-.918v-7.31h.918v7.31zm.187-8.976h-1.292V111h1.292v1.309zm8.075 8.976h-.918v-5.321c0-.119 0-.221-.034-.289-.153-.289-.544-.68-.816-.833a.582.582 0 0 0-.306-.068h-1.207a.543.543 0 0 0-.238.051c-.289.153-1.02.612-1.275 1.02v5.44h-.918v-6.103l-.119-1.207h.918l.102.85c.204-.221.442-.442.629-.578.238-.17.561-.357.85-.357h1.275c.374 0 .782.119 1.054.323.238.17.629.629.765.816.17.255.238.561.238.901v5.355zm6.205-6.426h-2.244v4.352c0 .119.017.255.051.323.153.289.493.646.765.799.085.051.221.068.34.068h1.071v.884h-1.088c-.374 0-.765-.119-1.037-.323-.238-.17-.629-.629-.765-.816a1.6 1.6 0 0 1-.255-.901v-4.386h-1.207v-.884h1.207v-2.89h.918v2.89h2.244v.884zm6.715 4.726l.017-.034.901.306c-.068.136-.136.221-.238.374-.136.187-.527.646-.765.816-.272.204-.663.323-1.037.323h-1.734c-.374 0-.782-.119-1.054-.323-.238-.17-.629-.629-.765-.816a1.6 1.6 0 0 1-.255-.901v-3.4c0-.34.085-.646.255-.901.136-.187.527-.646.765-.816.272-.204.68-.323 1.054-.323h1.7c.374 0 .782.119 1.054.323.238.17.629.629.765.816.17.255.238.561.238.901v2.091h-4.913v1.275c0 .119.017.221.051.289.153.289.527.68.799.833a.52.52 0 0 0 .289.068h1.785a.582.582 0 0 0 .306-.068c.272-.153.646-.578.782-.833zm-3.961-3.91a.677.677 0 0 0-.051.289v1.19h3.995v-1.19c0-.119 0-.221-.034-.289-.153-.289-.544-.68-.816-.833a.582.582 0 0 0-.306-.068h-1.683a.52.52 0 0 0-.289.068c-.272.153-.663.544-.816.833zm12.529-.272l-.884.289c-.17-.255-.544-.697-.816-.85a.582.582 0 0 0-.306-.068h-.833a.621.621 0 0 0-.255.051c-.289.153-1.054.612-1.292 1.037v5.423h-.918v-6.103l-.119-1.207h.935l.102.867c.221-.221.442-.459.646-.595.238-.17.561-.357.85-.357h.85c.374 0 .765.119 1.037.323.238.17.612.629.748.816.102.136.204.289.255.374zm4.165 4.947l2.006-6.375h.969l-2.38 7.31h-1.275l-2.414-7.31h.986l2.006 6.375h.102zm5.848.935h-.918v-7.31h.918v7.31zm.187-8.976h-1.292V111h1.292v1.309zm7.089 7.276l.017-.034.901.306c-.068.136-.136.221-.238.374-.136.187-.527.646-.765.816-.272.204-.663.323-1.037.323h-1.734c-.374 0-.782-.119-1.054-.323-.238-.17-.629-.629-.765-.816a1.6 1.6 0 0 1-.255-.901v-3.4c0-.34.085-.646.255-.901.136-.187.527-.646.765-.816.272-.204.68-.323 1.054-.323h1.7c.374 0 .782.119 1.054.323.238.17.629.629.765.816.17.255.238.561.238.901v2.091h-4.913v1.275c0 .119.017.221.051.289.153.289.527.68.799.833a.52.52 0 0 0 .289.068h1.785a.582.582 0 0 0 .306-.068c.272-.153.646-.578.782-.833zm-3.961-3.91a.677.677 0 0 0-.051.289v1.19h3.995v-1.19c0-.119 0-.221-.034-.289-.153-.289-.544-.68-.816-.833a.582.582 0 0 0-.306-.068h-1.683a.52.52 0 0 0-.289.068c-.272.153-.663.544-.816.833zm16.796-1.7l-2.057 7.31h-1.275l-1.802-6.239-1.734 6.239H174.3l-2.125-7.31h.986l1.734 6.324h.102l1.666-6.324h1.309l1.734 6.324h.102l1.666-6.324h.969zm11.254 5.423a1.6 1.6 0 0 1-.255.901c-.136.187-.459.578-.697.748-.272.204-.68.323-1.037.323h-2.04c-.357 0-.765-.119-1.037-.323-.238-.17-.612-.612-.748-.799-.085-.136-.204-.306-.238-.391l.884-.306c.136.289.527.714.799.867a.582.582 0 0 0 .306.068h2.057a.52.52 0 0 0 .289-.068c.272-.153.595-.476.748-.765a.677.677 0 0 0 .051-.289v-.612c0-.34-.289-.595-.646-.629l-2.805-.204c-.833-.068-1.479-.714-1.479-1.547v-.51c0-.34.085-.646.255-.901.136-.187.459-.578.697-.748.272-.204.68-.323 1.037-.323h1.768c.357 0 .765.119 1.037.323.238.17.629.629.765.816.102.136.204.289.238.374l-.884.306c-.136-.289-.544-.714-.816-.867a.52.52 0 0 0-.289-.068h-1.802a.582.582 0 0 0-.306.068 2.057 2.057 0 0 0-.731.748.677.677 0 0 0-.051.289v.51c0 .34.289.595.646.629l2.805.221c.833.068 1.479.714 1.479 1.547v.612zm7.973 1.887h-.918l-.102-.85a4.753 4.753 0 0 1-.629.578c-.238.17-.561.357-.85.357h-1.275c-.374 0-.782-.119-1.054-.323-.238-.17-.629-.629-.765-.816-.17-.255-.238-.561-.238-.901v-5.355h.918v5.321c0 .119 0 .221.034.289.153.289.544.68.816.833a.582.582 0 0 0 .306.068h1.207c.085 0 .17-.017.238-.051.289-.153 1.02-.612 1.275-1.02v-5.44h.918v6.103l.119 1.207zm8.041-1.428c-.204.374-.595.901-1.003 1.19-.272.204-.663.323-1.037.323h-1.734c-.374 0-.782-.119-1.054-.323-.238-.17-.629-.629-.765-.816-.17-.255-.238-.561-.238-.901v-3.4c0-.34.068-.646.238-.901.136-.187.527-.646.765-.816.272-.204.68-.323 1.054-.323h1.683c.374 0 .765.119 1.037.323.425.306.782.85 1.003 1.207l-.884.289c-.136-.289-.544-.714-.816-.867a.582.582 0 0 0-.306-.068h-1.7a.582.582 0 0 0-.306.068c-.272.153-.646.544-.799.833a.677.677 0 0 0-.051.289v3.332c0 .119.017.221.051.289.153.289.51.68.782.833a.582.582 0 0 0 .306.068h1.768a.582.582 0 0 0 .306-.068c.272-.153.68-.578.799-.833l.017-.034.884.306zm7.752 0c-.204.374-.595.901-1.003 1.19-.272.204-.663.323-1.037.323h-1.734c-.374 0-.782-.119-1.054-.323-.238-.17-.629-.629-.765-.816-.17-.255-.238-.561-.238-.901v-3.4c0-.34.068-.646.238-.901.136-.187.527-.646.765-.816.272-.204.68-.323 1.054-.323h1.683c.374 0 .765.119 1.037.323.425.306.782.85 1.003 1.207l-.884.289c-.136-.289-.544-.714-.816-.867a.582.582 0 0 0-.306-.068h-1.7a.582.582 0 0 0-.306.068c-.272.153-.646.544-.799.833a.677.677 0 0 0-.051.289v3.332c0 .119.017.221.051.289.153.289.51.68.782.833a.582.582 0 0 0 .306.068h1.768a.582.582 0 0 0 .306-.068c.272-.153.68-.578.799-.833l.017-.034.884.306zm6.851-.272l.017-.034.901.306c-.068.136-.136.221-.238.374-.136.187-.527.646-.765.816-.272.204-.663.323-1.037.323h-1.734c-.374 0-.782-.119-1.054-.323-.238-.17-.629-.629-.765-.816a1.6 1.6 0 0 1-.255-.901v-3.4c0-.34.085-.646.255-.901.136-.187.527-.646.765-.816.272-.204.68-.323 1.054-.323h1.7c.374 0 .782.119 1.054.323.238.17.629.629.765.816.17.255.238.561.238.901v2.091h-4.913v1.275c0 .119.017.221.051.289.153.289.527.68.799.833a.52.52 0 0 0 .289.068h1.785a.582.582 0 0 0 .306-.068c.272-.153.646-.578.782-.833zm-3.961-3.91a.677.677 0 0 0-.051.289v1.19h3.995v-1.19c0-.119 0-.221-.034-.289-.153-.289-.544-.68-.816-.833a.582.582 0 0 0-.306-.068h-1.683a.52.52 0 0 0-.289.068c-.272.153-.663.544-.816.833zm12.852 3.723a1.6 1.6 0 0 1-.255.901c-.136.187-.459.578-.697.748-.272.204-.68.323-1.037.323h-2.04c-.357 0-.765-.119-1.037-.323-.238-.17-.612-.612-.748-.799-.085-.136-.204-.306-.238-.391l.884-.306c.136.289.527.714.799.867a.582.582 0 0 0 .306.068h2.057a.52.52 0 0 0 .289-.068c.272-.153.595-.476.748-.765a.677.677 0 0 0 .051-.289v-.612c0-.34-.289-.595-.646-.629l-2.805-.204c-.833-.068-1.479-.714-1.479-1.547v-.51c0-.34.085-.646.255-.901.136-.187.459-.578.697-.748.272-.204.68-.323 1.037-.323h1.768c.357 0 .765.119 1.037.323.238.17.629.629.765.816.102.136.204.289.238.374l-.884.306c-.136-.289-.544-.714-.816-.867a.52.52 0 0 0-.289-.068h-1.802a.582.582 0 0 0-.306.068 2.057 2.057 0 0 0-.731.748.677.677 0 0 0-.051.289v.51c0 .34.289.595.646.629l2.805.221c.833.068 1.479.714 1.479 1.547v.612zm7.939 0a1.6 1.6 0 0 1-.255.901c-.136.187-.459.578-.697.748-.272.204-.68.323-1.037.323h-2.04c-.357 0-.765-.119-1.037-.323-.238-.17-.612-.612-.748-.799-.085-.136-.204-.306-.238-.391l.884-.306c.136.289.527.714.799.867a.582.582 0 0 0 .306.068h2.057a.52.52 0 0 0 .289-.068c.272-.153.595-.476.748-.765a.677.677 0 0 0 .051-.289v-.612c0-.34-.289-.595-.646-.629l-2.805-.204c-.833-.068-1.479-.714-1.479-1.547v-.51c0-.34.085-.646.255-.901.136-.187.459-.578.697-.748.272-.204.68-.323 1.037-.323h1.768c.357 0 .765.119 1.037.323.238.17.629.629.765.816.102.136.204.289.238.374l-.884.306c-.136-.289-.544-.714-.816-.867a.52.52 0 0 0-.289-.068h-1.802a.582.582 0 0 0-.306.068 2.057 2.057 0 0 0-.731.748.677.677 0 0 0-.051.289v.51c0 .34.289.595.646.629l2.805.221c.833.068 1.479.714 1.479 1.547v.612zm6.392-7.497h-1.411c-.119 0-.272 0-.357.051-.272.153-.612.527-.765.816-.034.068-.034.187-.034.306v.901h2.074v.884h-2.074v6.426h-.918v-6.426h-1.207v-.884h1.207v-.935c0-.34.068-.646.238-.901.136-.187.527-.646.765-.816.272-.204.68-.306 1.054-.306h1.428v.884zm7.123 9.384h-.918l-.102-.85a4.753 4.753 0 0 1-.629.578c-.238.17-.561.357-.85.357h-1.275c-.374 0-.782-.119-1.054-.323-.238-.17-.629-.629-.765-.816-.17-.255-.238-.561-.238-.901v-5.355h.918v5.321c0 .119 0 .221.034.289.153.289.544.68.816.833a.582.582 0 0 0 .306.068h1.207c.085 0 .17-.017.238-.051.289-.153 1.02-.612 1.275-1.02v-5.44h.918v6.103l.119 1.207zm3.468 0h-.918c-.034-.289-.153-.663-.153-.952v-9.248h.918v9.044c0 .374.119.782.153 1.156z"/></g></g></svg>