<svg xmlns="http://www.w3.org/2000/svg" width="300" height="284"><g fill="none" fill-rule="evenodd"><path stroke="#BDC1C9" stroke-linecap="square" stroke-opacity=".215" stroke-width=".513" d="M290.506 3H10"/><path fill="#FFF" fill-rule="nonzero" d="M102 0h96.332v6.074H102z"/><path fill="#BDC1C9" fill-rule="nonzero" d="M79.242 244.824h9.295v3.113h-9.295z" opacity=".15"/><g fill-rule="nonzero"><g transform="translate(188 177)"><circle cx="32" cy="32" r="32" fill="#FED72A"/><circle cx="32" cy="32" r="30" fill="#FFF"/></g><path fill="#FFF" d="M221.343 171.346l-2.215 24.332-24.96-15.217 27.175-9.115z"/><path fill="#FFF" d="M220.509 169.052h1.84v71.347h-1.841z"/><path fill="#FFF" d="M258.783 205.321v1.832h-74.709v-1.832z"/><path fill="#FFF" d="M248.493 231.883l-1.302 1.295-52.827-52.587 1.302-1.296z"/><path fill="#FFF" d="M194.364 231.883l1.302 1.295 52.827-52.587-1.301-1.296z"/></g><path fill="#191E2A" d="M113.682 3.82a.558.558 0 0 1-.09.318 2.052 2.052 0 0 1-.432.42.781.781 0 0 1-.348.102h-.948a.757.757 0 0 1-.342-.102 2.084 2.084 0 0 1-.438-.42.564.564 0 0 1-.084-.318V1.846c0-.102.018-.222.084-.318a2.11 2.11 0 0 1 .438-.426.757.757 0 0 1 .342-.102h.948c.114 0 .252.048.348.102.12.072.36.324.432.426.066.096.09.21.09.318V3.82zm-.492-.006V1.858a.12.12 0 0 0-.012-.054 1.052 1.052 0 0 0-.33-.324.12.12 0 0 0-.054-.012h-.9a.12.12 0 0 0-.054.012c-.096.048-.348.276-.348.378v1.956c0 .09.258.324.348.366a.12.12 0 0 0 .054.012h.9a.12.12 0 0 0 .054-.012c.096-.048.342-.264.342-.366zm5.02-2.784l-1.194 3.6h-.648l-1.194-3.6h.522l.996 3.072.996-3.072h.522zm3.754 3.6h-2.208v-3.6h2.208v.468h-1.716v1.098h1.62v.468h-1.62v1.098h1.716v.468zm4.558 0h-.534l-.846-1.5h-.828v1.5h-.492v-3.6h1.692c.138 0 .294.048.402.126.084.06.27.246.318.318a.634.634 0 0 1 .102.342v.54c0 .12-.036.234-.102.336a1.991 1.991 0 0 1-.318.318.584.584 0 0 1-.27.108l.876 1.512zm-.678-2.286v-.516c0-.012 0-.06-.006-.066-.036-.066-.21-.258-.294-.264h-1.23v1.164h1.194c.108 0 .288-.168.33-.252.006-.012.006-.054.006-.066zm5.284 2.286h-.528l-.27-.804h-1.56l-.276.804h-.522l1.254-3.6h.648l1.254 3.6zm-.954-1.266l-.624-1.83-.624 1.83h1.248zm4.666 1.266h-2.172v-3.6h.492v3.132h1.68v.468zm3.85 0h-2.172v-3.6h.492v3.132h1.68v.468zm6.584-2.274c0 .12-.036.234-.102.336-.048.072-.24.258-.324.318a.7.7 0 0 1-.396.12h-1.2v1.5h-.492v-3.6h1.692c.138 0 .294.048.402.126.084.06.27.246.318.318a.634.634 0 0 1 .102.342v.54zm-.492-.012v-.522c0-.03-.006-.048-.012-.066-.024-.072-.21-.252-.294-.258h-1.224v1.164h1.194c.108 0 .264-.162.318-.24a.15.15 0 0 0 .018-.078zm4.414 2.286h-2.208v-3.6h2.208v.468h-1.716v1.098h1.62v.468h-1.62v1.098h1.716v.468zm4.558 0h-.534l-.846-1.5h-.828v1.5h-.492v-3.6h1.692c.138 0 .294.048.402.126.084.06.27.246.318.318a.634.634 0 0 1 .102.342v.54c0 .12-.036.234-.102.336a1.991 1.991 0 0 1-.318.318.584.584 0 0 1-.27.108l.876 1.512zm-.678-2.286v-.516c0-.012 0-.06-.006-.066-.036-.066-.21-.258-.294-.264h-1.23v1.164h1.194c.108 0 .288-.168.33-.252.006-.012.006-.054.006-.066zm4.63-.846h-1.71v1.098h1.62v.468h-1.62V4.63h-.492v-3.6h2.202v.468zm4.384 2.322a.558.558 0 0 1-.09.318 2.052 2.052 0 0 1-.432.42.781.781 0 0 1-.348.102h-.948a.757.757 0 0 1-.342-.102 2.084 2.084 0 0 1-.438-.42.564.564 0 0 1-.084-.318V1.846c0-.102.018-.222.084-.318a2.11 2.11 0 0 1 .438-.426.757.757 0 0 1 .342-.102h.948c.114 0 .252.048.348.102.12.072.36.324.432.426.066.096.09.21.09.318V3.82zm-.492-.006V1.858a.12.12 0 0 0-.012-.054 1.052 1.052 0 0 0-.33-.324.12.12 0 0 0-.054-.012h-.9a.12.12 0 0 0-.054.012c-.096.048-.348.276-.348.378v1.956c0 .09.258.324.348.366a.12.12 0 0 0 .054.012h.9a.12.12 0 0 0 .054-.012c.096-.048.342-.264.342-.366zm5.014.816h-.534l-.846-1.5h-.828v1.5h-.492v-3.6h1.692c.138 0 .294.048.402.126.084.06.27.246.318.318a.634.634 0 0 1 .102.342v.54c0 .12-.036.234-.102.336a1.991 1.991 0 0 1-.318.318.584.584 0 0 1-.27.108l.876 1.512zm-.678-2.286v-.516c0-.012 0-.06-.006-.066-.036-.066-.21-.258-.294-.264h-1.23v1.164h1.194c.108 0 .288-.168.33-.252.006-.012.006-.054.006-.066zm5.59 2.286h-.48V1.768l-.942 1.932h-.324l-.93-1.932V4.63h-.486v-3.6h.624l.96 1.962.966-1.962h.612v3.6zm4.714 0h-.528l-.27-.804h-1.56l-.276.804h-.522l1.254-3.6h.648l1.254 3.6zm-.954-1.266l-.624-1.83-.624 1.83h1.248zm5.062 1.266h-.57l-1.512-2.748V4.63h-.486v-3.6h.582l1.5 2.778V1.03h.486v3.6zm4.39-.768a1.293 1.293 0 0 1-.168.312c-.174.216-.426.486-.738.486h-.792a.781.781 0 0 1-.348-.102 2.052 2.052 0 0 1-.432-.42.558.558 0 0 1-.09-.318V1.84c0-.108.024-.216.09-.312.072-.102.312-.354.432-.426a.757.757 0 0 1 .342-.102h.798c.312 0 .57.264.738.486.048.06.096.15.168.306l-.48.138c-.066-.192-.258-.372-.396-.456 0 0-.024-.006-.048-.006h-.75a.12.12 0 0 0-.054.012 1.119 1.119 0 0 0-.33.324c-.012.018-.012.048-.012.078v1.932c0 .102.246.318.342.366a.12.12 0 0 0 .054.012h.75a.15.15 0 0 0 .06-.012.943.943 0 0 0 .384-.444l.48.126zm3.922.768h-2.208v-3.6h2.208v.468h-1.716v1.098h1.62v.468h-1.62v1.098h1.716v.468z"/><path stroke="#F3F3F3" d="M17.5 140.5h135v119h-135zM152.5 140.5h135v119h-135z"/><path fill="#191E2A" d="M214.854 204.134l-5.418 11.55h-1.344l5.397-11.424H207v-1.176h7.854v1.05zm9.475-1.05l-6.636 12.6h-1.344l6.657-12.6h1.323zm9.055 10.101c0 .399-.105.777-.315 1.092-.147.231-.777.903-1.05 1.113a2.127 2.127 0 0 1-1.239.399h-2.625c-.441 0-.903-.147-1.239-.399-.273-.21-.903-.882-1.05-1.113a1.955 1.955 0 0 1-.315-1.092v-1.911c0-.399.105-.777.315-1.092.126-.189.525-.609.819-.882-.294-.273-.693-.714-.819-.903a1.955 1.955 0 0 1-.315-1.092v-1.701c0-.399.105-.798.315-1.113.147-.231.777-.882 1.05-1.092a2.127 2.127 0 0 1 1.239-.399h2.625c.441 0 .903.147 1.239.399.273.21.903.861 1.05 1.092.21.315.315.714.315 1.113v1.701c0 .399-.105.777-.315 1.092-.126.189-.525.63-.819.903.294.273.693.693.819.882.21.315.315.693.315 1.092v1.911zm-1.218-5.922v-1.617a.905.905 0 0 0-.063-.357c-.189-.357-.672-.84-1.008-1.029a.616.616 0 0 0-.336-.084h-2.583a.69.69 0 0 0-.357.084c-.336.189-.798.672-.987 1.029a.905.905 0 0 0-.063.357v1.617c0 .126.021.273.063.357.189.357.651.84.987 1.029.105.063.231.063.357.063h2.583a.616.616 0 0 0 .336-.084c.336-.189.819-.651 1.008-1.008a.905.905 0 0 0 .063-.357zm0 5.901v-1.848a.8.8 0 0 0-.063-.336c-.189-.357-.672-.819-1.008-1.008a.616.616 0 0 0-.336-.084h-2.583a.69.69 0 0 0-.357.084c-.336.189-.798.651-.987 1.008a.8.8 0 0 0-.063.336v1.848a.8.8 0 0 0 .063.336c.189.357.651.84.987 1.029a.69.69 0 0 0 .357.084h2.583a.616.616 0 0 0 .336-.084c.336-.189.819-.672 1.008-1.029a.8.8 0 0 0 .063-.336z"/><path d="M53 213h16v16H53z"/><path fill="#FED72A" fill-rule="nonzero" d="M61 224.513L65.12 227l-1.093-4.687 3.64-3.153-4.794-.407-1.873-4.42-1.873 4.42-4.794.407 3.64 3.153L56.88 227z"/><path d="M53 213h16v16H53zM69 213h16v16H69z"/><path fill="#FED72A" fill-rule="nonzero" d="M77 224.513L81.12 227l-1.093-4.687 3.64-3.153-4.794-.407-1.873-4.42-1.873 4.42-4.794.407 3.64 3.153L72.88 227z"/><path d="M69 213h16v16H69z"/><g><path d="M85 213h16v16H85z"/><path fill="#FED72A" fill-rule="nonzero" d="M93 224.513L97.12 227l-1.093-4.687 3.64-3.153-4.794-.407-1.873-4.42-1.873 4.42-4.794.407 3.64 3.153L88.88 227z"/><path d="M85 213h16v16H85z"/></g><g><path d="M101 213h16v16h-16z"/><path fill="#FED72A" fill-rule="nonzero" d="M109 224.513l4.12 2.487-1.093-4.687 3.64-3.153-4.794-.407-1.873-4.42-1.873 4.42-4.794.407 3.64 3.153L104.88 227z"/><path d="M101 213h16v16h-16z"/></g><path fill="#191E2A" d="M71.917 202.185c0 .399-.105.777-.315 1.092-.147.231-.777.903-1.05 1.113a2.127 2.127 0 0 1-1.239.399h-2.457c-.336 0-.777-.147-1.071-.336-.441-.273-1.008-.903-1.302-1.302a5.209 5.209 0 0 1-.483-.84l1.218-.336c.294.567.966 1.344 1.407 1.575a.61.61 0 0 0 .294.063h2.373a.69.69 0 0 0 .357-.084c.336-.189.798-.672.987-1.029a.8.8 0 0 0 .063-.336v-1.869a.8.8 0 0 0-.063-.336c-.189-.357-.651-.819-.987-1.008a.791.791 0 0 0-.336-.084h-2.52v-1.176h2.499a.905.905 0 0 0 .357-.063c.336-.189.798-.651.987-1.008a.905.905 0 0 0 .063-.357v-1.617a.905.905 0 0 0-.063-.357c-.189-.357-.651-.861-.987-1.05-.105-.063-.231-.063-.357-.063h-2.373a.61.61 0 0 0-.294.063c-.441.231-1.155.987-1.407 1.575l-1.197-.336c.126-.294.315-.609.462-.819.294-.399.861-1.071 1.302-1.344a2.187 2.187 0 0 1 1.071-.315h2.457c.441 0 .903.147 1.239.399.273.21.903.882 1.05 1.113.21.315.315.693.315 1.092v1.701c0 .399-.105.777-.315 1.092-.126.189-.525.609-.819.882.294.273.693.693.819.882.21.315.315.693.315 1.092v1.932zm3.826 2.499h-1.638v-1.638h1.638v1.638zm10.357-2.499c0 .399-.105.777-.315 1.092-.147.231-.777.903-1.05 1.113-.336.252-.819.399-1.26.399h-2.373c-.336 0-.777-.126-1.071-.315-.441-.273-1.008-.945-1.302-1.344-.147-.21-.378-.525-.504-.819l1.218-.336c.252.588.987 1.344 1.428 1.575.063.042.21.063.315.063h2.268c.126 0 .273 0 .378-.063.336-.189.798-.693.987-1.05a.905.905 0 0 0 .063-.357v-3.36c-.252.273-.525.546-.756.693-.294.189-.735.294-1.071.294h-2.184c-.441 0-.924-.126-1.26-.378-.273-.21-.903-.84-1.05-1.071a2.024 2.024 0 0 1-.315-1.113v-2.604c0-.399.105-.777.315-1.092.147-.231.777-.903 1.05-1.113.336-.252.819-.399 1.26-.399h2.604c.441 0 .924.147 1.26.399.273.21.903.882 1.05 1.113.21.315.315.693.315 1.092v7.581zm-1.218-5.082v-2.478a.8.8 0 0 0-.063-.336c-.189-.357-.672-.84-1.008-1.029a.69.69 0 0 0-.357-.084h-2.562a.769.769 0 0 0-.378.084c-.336.189-.798.672-.987 1.029a.8.8 0 0 0-.063.336v2.562a.8.8 0 0 0 .063.336c.189.357.651.84.987 1.029a.769.769 0 0 0 .378.084h2.1c.105 0 .21-.021.273-.063.357-.189 1.218-.756 1.512-1.26.021-.042.084-.147.105-.21zm10.588-5.019l-6.636 12.6H87.49l6.657-12.6h1.323zm9.601 8.463v1.176h-1.365v2.961h-1.218v-2.961h-5.901v-1.176l5.334-8.463h1.785v8.463h1.365zm-7.098 0h4.515v-7.182l-4.515 7.182zm-48.405-38.685a1.293 1.293 0 0 1-.168.312c-.174.216-.426.486-.738.486h-.792a.781.781 0 0 1-.348-.102 2.052 2.052 0 0 1-.432-.42.558.558 0 0 1-.09-.318v-1.98c0-.108.024-.216.09-.312.072-.102.312-.354.432-.426a.757.757 0 0 1 .342-.102h.798c.312 0 .57.264.738.486.048.06.096.15.168.306l-.48.138c-.066-.192-.258-.372-.396-.456 0 0-.024-.006-.048-.006h-.75a.12.12 0 0 0-.054.012 1.119 1.119 0 0 0-.33.324c-.012.018-.012.048-.012.078v1.932c0 .102.246.318.342.366a.12.12 0 0 0 .054.012h.75a.15.15 0 0 0 .06-.012.943.943 0 0 0 .384-.444l.48.126zm4.366-.042a.558.558 0 0 1-.09.318 2.052 2.052 0 0 1-.432.42.781.781 0 0 1-.348.102h-.948a.757.757 0 0 1-.342-.102 2.084 2.084 0 0 1-.438-.42.564.564 0 0 1-.084-.318v-1.974c0-.102.018-.222.084-.318a2.11 2.11 0 0 1 .438-.426.757.757 0 0 1 .342-.102h.948c.114 0 .252.048.348.102.12.072.36.324.432.426.066.096.09.21.09.318v1.974zm-.492-.006v-1.956a.12.12 0 0 0-.012-.054 1.052 1.052 0 0 0-.33-.324.12.12 0 0 0-.054-.012h-.9a.12.12 0 0 0-.054.012c-.096.048-.348.276-.348.378v1.956c0 .09.258.324.348.366a.12.12 0 0 0 .054.012h.9a.12.12 0 0 0 .054-.012c.096-.048.342-.264.342-.366zm5.476.816h-.48v-2.862l-.942 1.932h-.324l-.93-1.932v2.862h-.486v-3.6h.624l.96 1.962.966-1.962h.612v3.6zm5.02 0h-.48v-2.862l-.942 1.932h-.324l-.93-1.932v2.862h-.486v-3.6h.624l.96 1.962.966-1.962h.612v3.6zm4.36-.804a.533.533 0 0 1-.084.312 2.052 2.052 0 0 1-.432.42.757.757 0 0 1-.342.102h-.804a.781.781 0 0 1-.348-.102 2.052 2.052 0 0 1-.432-.42.539.539 0 0 1-.09-.312v-2.796h.492v2.784c0 .09.27.324.36.366a.093.093 0 0 0 .048.012h.744a.12.12 0 0 0 .054-.012c.09-.042.342-.282.342-.366v-2.784h.492v2.796zm4.39.804h-.57l-1.512-2.748v2.748h-.486v-3.6h.582l1.5 2.778v-2.778h.486v3.6zm2.344 0h-.492v-3.6h.492v3.6zm4.384-.768a1.293 1.293 0 0 1-.168.312c-.174.216-.426.486-.738.486h-.792a.781.781 0 0 1-.348-.102 2.052 2.052 0 0 1-.432-.42.558.558 0 0 1-.09-.318v-1.98c0-.108.024-.216.09-.312.072-.102.312-.354.432-.426a.757.757 0 0 1 .342-.102h.798c.312 0 .57.264.738.486.048.06.096.15.168.306l-.48.138c-.066-.192-.258-.372-.396-.456 0 0-.024-.006-.048-.006h-.75a.12.12 0 0 0-.054.012 1.119 1.119 0 0 0-.33.324c-.012.018-.012.048-.012.078v1.932c0 .102.246.318.342.366a.12.12 0 0 0 .054.012h.75a.15.15 0 0 0 .06-.012.943.943 0 0 0 .384-.444l.48.126zm4.57.768h-.528l-.27-.804h-1.56l-.276.804h-.522l1.254-3.6h.648l1.254 3.6zm-.954-1.266l-.624-1.83-.624 1.83h1.248zm4.48-1.866h-1.026v3.132h-.492v-3.132h-1.026v-.468h2.544v.468zm2.164 3.132h-.492v-3.6h.492v3.6zm4.504-.81a.558.558 0 0 1-.09.318 2.052 2.052 0 0 1-.432.42.781.781 0 0 1-.348.102h-.948a.757.757 0 0 1-.342-.102 2.084 2.084 0 0 1-.438-.42.564.564 0 0 1-.084-.318v-1.974c0-.102.018-.222.084-.318a2.11 2.11 0 0 1 .438-.426.757.757 0 0 1 .342-.102h.948c.114 0 .252.048.348.102.12.072.36.324.432.426.066.096.09.21.09.318v1.974zm-.492-.006v-1.956a.12.12 0 0 0-.012-.054 1.052 1.052 0 0 0-.33-.324.12.12 0 0 0-.054-.012h-.9a.12.12 0 0 0-.054.012c-.096.048-.348.276-.348.378v1.956c0 .09.258.324.348.366a.12.12 0 0 0 .054.012h.9a.12.12 0 0 0 .054-.012c.096-.048.342-.264.342-.366zm4.882.816H98l-1.512-2.748v2.748h-.486v-3.6h.582l1.5 2.778v-2.778h.486v3.6zm6.902-.81a.564.564 0 0 1-.084.318 2.084 2.084 0 0 1-.438.42.757.757 0 0 1-.342.102h-1.002c-.318 0-.576-.264-.744-.486a1.97 1.97 0 0 1-.162-.312l.474-.126.054.108c.078.138.252.288.342.336a.11.11 0 0 0 .054.012h.96a.113.113 0 0 0 .048-.012c.096-.048.348-.264.348-.366v-.366c0-.096-.066-.186-.138-.204l-1.632-.42c-.276-.072-.426-.348-.426-.612v-.366c0-.102.018-.222.084-.318a2.11 2.11 0 0 1 .438-.426.757.757 0 0 1 .342-.102h.882c.312 0 .57.264.738.486.048.06.096.15.168.306l-.48.138-.06-.12a1.009 1.009 0 0 0-.342-.336s-.018-.006-.042-.006h-.834c-.024 0-.036.006-.054.012-.09.042-.348.276-.348.366v.342c0 .09.06.174.132.192l1.626.432c.27.072.438.336.438.6v.408zm4.3.042a1.293 1.293 0 0 1-.168.312c-.174.216-.426.486-.738.486h-.792a.781.781 0 0 1-.348-.102 2.052 2.052 0 0 1-.432-.42.558.558 0 0 1-.09-.318v-1.98c0-.108.024-.216.09-.312.072-.102.312-.354.432-.426a.757.757 0 0 1 .342-.102h.798c.312 0 .57.264.738.486.048.06.096.15.168.306l-.48.138c-.066-.192-.258-.372-.396-.456 0 0-.024-.006-.048-.006h-.75a.12.12 0 0 0-.054.012 1.119 1.119 0 0 0-.33.324c-.012.018-.012.048-.012.078v1.932c0 .102.246.318.342.366a.12.12 0 0 0 .054.012h.75a.15.15 0 0 0 .06-.012.943.943 0 0 0 .384-.444l.48.126zm4.366-.042a.558.558 0 0 1-.09.318 2.052 2.052 0 0 1-.432.42.781.781 0 0 1-.348.102h-.948a.757.757 0 0 1-.342-.102 2.084 2.084 0 0 1-.438-.42.564.564 0 0 1-.084-.318v-1.974c0-.102.018-.222.084-.318a2.11 2.11 0 0 1 .438-.426.757.757 0 0 1 .342-.102h.948c.114 0 .252.048.348.102.12.072.36.324.432.426.066.096.09.21.09.318v1.974zm-.492-.006v-1.956a.12.12 0 0 0-.012-.054 1.052 1.052 0 0 0-.33-.324.12.12 0 0 0-.054-.012h-.9a.12.12 0 0 0-.054.012c-.096.048-.348.276-.348.378v1.956c0 .09.258.324.348.366a.12.12 0 0 0 .054.012h.9a.12.12 0 0 0 .054-.012c.096-.048.342-.264.342-.366zm5.014.816h-.534l-.846-1.5h-.828v1.5h-.492v-3.6h1.692c.138 0 .294.048.402.126.084.06.27.246.318.318a.634.634 0 0 1 .102.342v.54c0 .12-.036.234-.102.336a1.991 1.991 0 0 1-.318.318.584.584 0 0 1-.27.108l.876 1.512zm-.678-2.286v-.516c0-.012 0-.06-.006-.066-.036-.066-.21-.258-.294-.264h-1.23v1.164h1.194c.108 0 .288-.168.33-.252a.246.246 0 0 0 .006-.066zm4.636 2.286h-2.208v-3.6h2.208v.468h-1.716v1.098h1.62v.468h-1.62v1.098h1.716v.468zm65.896-4.274c0 .12-.036.234-.102.336-.048.072-.24.258-.324.318a.7.7 0 0 1-.396.12h-1.2v1.5H186v-3.6h1.692c.138 0 .294.048.402.126.084.06.27.246.318.318a.634.634 0 0 1 .102.342v.54zm-.492-.012v-.522a.185.185 0 0 0-.012-.066c-.024-.072-.21-.252-.294-.258h-1.224v1.164h1.194c.108 0 .264-.162.318-.24a.15.15 0 0 0 .018-.078zm4.762 2.286h-.528l-.27-.804h-1.56l-.276.804h-.522l1.254-3.6h.648l1.254 3.6zm-.954-1.266l-.624-1.83-.624 1.83h1.248zm5.146.456a.564.564 0 0 1-.084.318 2.084 2.084 0 0 1-.438.42.757.757 0 0 1-.342.102h-1.002c-.318 0-.576-.264-.744-.486a1.97 1.97 0 0 1-.162-.312l.474-.126.054.108c.078.138.252.288.342.336.024.012.042.012.054.012h.96a.113.113 0 0 0 .048-.012c.096-.048.348-.264.348-.366v-.366c0-.096-.066-.186-.138-.204l-1.632-.42c-.276-.072-.426-.348-.426-.612v-.366c0-.102.018-.222.084-.318a2.11 2.11 0 0 1 .438-.426.757.757 0 0 1 .342-.102h.882c.312 0 .57.264.738.486.048.06.096.15.168.306l-.48.138-.06-.12a1.009 1.009 0 0 0-.342-.336s-.018-.006-.042-.006h-.834c-.024 0-.036.006-.054.012-.09.042-.348.276-.348.366v.342c0 .09.06.174.132.192l1.626.432c.27.072.438.336.438.6v.408zm4.42 0a.564.564 0 0 1-.084.318 2.084 2.084 0 0 1-.438.42.757.757 0 0 1-.342.102h-1.002c-.318 0-.576-.264-.744-.486a1.97 1.97 0 0 1-.162-.312l.474-.126.054.108c.078.138.252.288.342.336a.11.11 0 0 0 .054.012h.96a.113.113 0 0 0 .048-.012c.096-.048.348-.264.348-.366v-.366c0-.096-.066-.186-.138-.204l-1.632-.42c-.276-.072-.426-.348-.426-.612v-.366c0-.102.018-.222.084-.318a2.11 2.11 0 0 1 .438-.426.757.757 0 0 1 .342-.102h.882c.312 0 .57.264.738.486.048.06.096.15.168.306l-.48.138-.06-.12a1.009 1.009 0 0 0-.342-.336s-.018-.006-.042-.006h-.834c-.024 0-.036.006-.054.012-.09.042-.348.276-.348.366v.342c0 .09.06.174.132.192l1.626.432c.27.072.438.336.438.6v.408zm3.046-.462h-1.368v-.438h1.368v.438zm3.892-1.86h-1.026v3.132h-.492v-3.132h-1.026v-.468h2.544v.468zm4.21 3.132h-.492v-1.566h-1.548v1.566h-.492v-3.6h.492v1.566h1.548v-1.566h.492v3.6zm4.558 0h-.534l-.846-1.5h-.828v1.5h-.492v-3.6h1.692c.138 0 .294.048.402.126.084.06.27.246.318.318a.634.634 0 0 1 .102.342v.54c0 .12-.036.234-.102.336a1.991 1.991 0 0 1-.318.318.584.584 0 0 1-.27.108l.876 1.512zm-.678-2.286v-.516c0-.012 0-.06-.006-.066-.036-.066-.21-.258-.294-.264h-1.23v1.164h1.194c.108 0 .288-.168.33-.252a.246.246 0 0 0 .006-.066zm5.08 1.476a.558.558 0 0 1-.09.318 2.052 2.052 0 0 1-.432.42.781.781 0 0 1-.348.102h-.948a.757.757 0 0 1-.342-.102 2.084 2.084 0 0 1-.438-.42.564.564 0 0 1-.084-.318v-1.974c0-.102.018-.222.084-.318a2.11 2.11 0 0 1 .438-.426.757.757 0 0 1 .342-.102h.948c.114 0 .252.048.348.102.12.072.36.324.432.426.066.096.09.21.09.318v1.974zm-.492-.006v-1.956a.12.12 0 0 0-.012-.054 1.052 1.052 0 0 0-.33-.324.12.12 0 0 0-.054-.012h-.9a.12.12 0 0 0-.054.012c-.096.048-.348.276-.348.378v1.956c0 .09.258.324.348.366a.12.12 0 0 0 .054.012h.9a.12.12 0 0 0 .054-.012c.096-.048.342-.264.342-.366zm4.816.012a.533.533 0 0 1-.084.312 2.052 2.052 0 0 1-.432.42.757.757 0 0 1-.342.102h-.804a.781.781 0 0 1-.348-.102 2.052 2.052 0 0 1-.432-.42.539.539 0 0 1-.09-.312v-2.796h.492v2.784c0 .09.27.324.36.366a.093.093 0 0 0 .048.012h.744a.12.12 0 0 0 .054-.012c.09-.042.342-.282.342-.366v-2.784h.492v2.796zm4.552.804h-.48c-.012-.078-.036-.168-.042-.21-.126.102-.246.24-.45.24h-.924a.781.781 0 0 1-.348-.102 2.052 2.052 0 0 1-.432-.42.558.558 0 0 1-.09-.318v-1.974c0-.108.024-.222.09-.318.072-.102.312-.354.432-.426a.781.781 0 0 1 .348-.102h.924c.324 0 .57.264.744.492.048.06.096.144.168.3l-.48.138-.06-.12a.96.96 0 0 0-.33-.33.15.15 0 0 0-.06-.012h-.882a.12.12 0 0 0-.054.012c-.084.042-.276.204-.336.33a.12.12 0 0 0-.012.054v1.938c0 .102.264.336.36.384.012.006.024.006.048.006h.864c.024 0 .03 0 .054-.012.096-.048.354-.282.354-.384v-.744h-.822v-.468h1.314v1.206c0 .228.042.468.102.84zm4.354 0h-.492v-1.566h-1.548v1.566h-.492v-3.6h.492v1.566h1.548v-1.566h.492v3.6zm6.95 0h-.534l-.846-1.5h-.828v1.5h-.492v-3.6h1.692c.138 0 .294.048.402.126.084.06.27.246.318.318a.634.634 0 0 1 .102.342v.54c0 .12-.036.234-.102.336a1.991 1.991 0 0 1-.318.318.584.584 0 0 1-.27.108l.876 1.512zm-.678-2.286v-.516c0-.012 0-.06-.006-.066-.036-.066-.21-.258-.294-.264h-1.23v1.164h1.194c.108 0 .288-.168.33-.252a.246.246 0 0 0 .006-.066zm5.284 2.286h-.528l-.27-.804h-1.56l-.276.804h-.522l1.254-3.6h.648l1.254 3.6zm-.954-1.266l-.624-1.83-.624 1.83h1.248zm4.48-1.866h-1.026v3.132h-.492v-3.132h-1.026v-.468h2.544v.468zm3.886 3.132h-2.208v-3.6h2.208v.468h-1.716v1.098h1.62v.468h-1.62v1.098h1.716v.468z"/><g><path stroke="#F3F3F3" d="M152.5 21.5h135v119h-135z"/><path d="M188 94h16v16h-16z"/><path fill="#FED72A" fill-rule="nonzero" d="M196 105.513l4.12 2.487-1.093-4.687 3.64-3.153-4.794-.407-1.873-4.42-1.873 4.42-4.794.407 3.64 3.153L191.88 108z"/><path d="M188 94h16v16h-16zM204 94h16v16h-16z"/><path fill="#FED72A" fill-rule="nonzero" d="M212 105.513l4.12 2.487-1.093-4.687 3.64-3.153-4.794-.407-1.873-4.42-1.873 4.42-4.794.407 3.64 3.153L207.88 108z"/><path d="M204 94h16v16h-16z"/><g><path d="M220 94h16v16h-16z"/><path fill="#FED72A" fill-rule="nonzero" d="M228 105.513l4.12 2.487-1.093-4.687 3.64-3.153-4.794-.407-1.873-4.42-1.873 4.42-4.794.407 3.64 3.153L223.88 108z"/><path d="M220 94h16v16h-16z"/></g><g><path d="M236 94h16v16h-16z"/><path fill="#FED72A" fill-rule="nonzero" d="M250.666 100.16l-4.793-.414L244 95.333l-1.874 4.42-4.793.407 3.64 3.153L239.88 108l4.12-2.487 4.12 2.487-1.087-4.687 3.633-3.153zM244 104.266v-6.2l1.14 2.694 2.92.253-2.214 1.92.667 2.853-2.513-1.52z"/></g><path fill="#191E2A" d="M206.917 83.185c0 .399-.105.777-.315 1.092-.147.231-.777.903-1.05 1.113a2.127 2.127 0 0 1-1.239.399h-2.457c-.336 0-.777-.147-1.071-.336-.441-.273-1.008-.903-1.302-1.302a5.209 5.209 0 0 1-.483-.84l1.218-.336c.294.567.966 1.344 1.407 1.575a.61.61 0 0 0 .294.063h2.373a.69.69 0 0 0 .357-.084c.336-.189.798-.672.987-1.029a.8.8 0 0 0 .063-.336v-1.869a.8.8 0 0 0-.063-.336c-.189-.357-.651-.819-.987-1.008a.791.791 0 0 0-.336-.084h-2.52v-1.176h2.499a.905.905 0 0 0 .357-.063c.336-.189.798-.651.987-1.008a.905.905 0 0 0 .063-.357v-1.617a.905.905 0 0 0-.063-.357c-.189-.357-.651-.861-.987-1.05-.105-.063-.231-.063-.357-.063h-2.373a.61.61 0 0 0-.294.063c-.441.231-1.155.987-1.407 1.575l-1.197-.336c.126-.294.315-.609.462-.819.294-.399.861-1.071 1.302-1.344a2.187 2.187 0 0 1 1.071-.315h2.457c.441 0 .903.147 1.239.399.273.21.903.882 1.05 1.113.21.315.315.693.315 1.092v1.701c0 .399-.105.777-.315 1.092-.126.189-.525.609-.819.882.294.273.693.693.819.882.21.315.315.693.315 1.092v1.932zm3.826 2.499h-1.638v-1.638h1.638v1.638zm10.336-2.499c0 .399-.105.777-.315 1.092-.147.231-.777.903-1.05 1.113a2.127 2.127 0 0 1-1.239.399h-2.625c-.441 0-.903-.147-1.239-.399-.273-.21-.903-.882-1.05-1.113a1.955 1.955 0 0 1-.315-1.092v-7.581c0-.399.105-.777.315-1.092.147-.231.777-.903 1.05-1.113A2.127 2.127 0 0 1 215.85 73h2.394c.336 0 .777.126 1.071.315.441.273 1.008.945 1.302 1.344.147.21.357.525.483.819l-1.218.336c-.252-.588-.966-1.344-1.407-1.575-.063-.042-.21-.063-.315-.063h-2.289c-.126 0-.252 0-.357.063-.336.189-.798.693-.987 1.05a.905.905 0 0 0-.063.357v3.276c.252-.273.504-.546.735-.693.294-.189.756-.294 1.092-.294h2.184c.441 0 .903.126 1.239.378.273.21.903.84 1.05 1.071.21.315.315.714.315 1.113v2.688zm-1.218-.021v-2.646a.8.8 0 0 0-.063-.336c-.189-.357-.651-.84-.987-1.029a.69.69 0 0 0-.357-.084h-2.1a.61.61 0 0 0-.294.063c-.357.189-1.197.756-1.491 1.26-.021.042-.084.147-.105.21v2.562a.8.8 0 0 0 .063.336c.189.357.672.84 1.008 1.029.105.063.21.084.336.084h2.583a.69.69 0 0 0 .357-.084c.336-.189.798-.672.987-1.029a.8.8 0 0 0 .063-.336zm10.609-10.08l-6.636 12.6h-1.344l6.657-12.6h1.323zm9.601 8.463v1.176h-1.365v2.961h-1.218v-2.961h-5.901v-1.176l5.334-8.463h1.785v8.463h1.365zm-7.098 0h4.515v-7.182l-4.515 7.182zm-39.429-43.049h-1.026v3.132h-.492v-3.132H191v-.468h2.544v.468zm3.886 3.132h-2.208v-3.6h2.208v.468h-1.716v1.098h1.62v.468h-1.62v1.098h1.716v.468zm4.39-.768a1.293 1.293 0 0 1-.168.312c-.174.216-.426.486-.738.486h-.792a.781.781 0 0 1-.348-.102 2.052 2.052 0 0 1-.432-.42.558.558 0 0 1-.09-.318v-1.98c0-.108.024-.216.09-.312.072-.102.312-.354.432-.426a.757.757 0 0 1 .342-.102h.798c.312 0 .57.264.738.486.048.06.096.15.168.306l-.48.138c-.066-.192-.258-.372-.396-.456 0 0-.024-.006-.048-.006h-.75a.12.12 0 0 0-.054.012 1.119 1.119 0 0 0-.33.324c-.012.018-.012.048-.012.078v1.932c0 .102.246.318.342.366a.12.12 0 0 0 .054.012h.75a.15.15 0 0 0 .06-.012.943.943 0 0 0 .384-.444l.48.126zm4.246.768h-.492v-1.566h-1.548v1.566h-.492v-3.6h.492v1.566h1.548V38.03h.492v3.6zm4.426 0h-.57l-1.512-2.748v2.748h-.486v-3.6h.582l1.5 2.778V38.03h.486v3.6zm2.344 0h-.492v-3.6h.492v3.6zm4.384-.768a1.293 1.293 0 0 1-.168.312c-.174.216-.426.486-.738.486h-.792a.781.781 0 0 1-.348-.102 2.052 2.052 0 0 1-.432-.42.558.558 0 0 1-.09-.318v-1.98c0-.108.024-.216.09-.312.072-.102.312-.354.432-.426a.757.757 0 0 1 .342-.102h.798c.312 0 .57.264.738.486.048.06.096.15.168.306l-.48.138c-.066-.192-.258-.372-.396-.456 0 0-.024-.006-.048-.006h-.75a.12.12 0 0 0-.054.012 1.119 1.119 0 0 0-.33.324c-.012.018-.012.048-.012.078v1.932c0 .102.246.318.342.366a.12.12 0 0 0 .054.012h.75a.15.15 0 0 0 .06-.012.943.943 0 0 0 .384-.444l.48.126zm4.57.768h-.528l-.27-.804h-1.56l-.276.804h-.522l1.254-3.6h.648l1.254 3.6zm-.954-1.266l-.624-1.83-.624 1.83h1.248zm4.666 1.266h-2.172v-3.6h.492v3.132h1.68v.468zm6.722-.81a.564.564 0 0 1-.084.318 2.084 2.084 0 0 1-.438.42.757.757 0 0 1-.342.102h-1.002c-.318 0-.576-.264-.744-.486a1.97 1.97 0 0 1-.162-.312l.474-.126.054.108c.078.138.252.288.342.336a.11.11 0 0 0 .054.012h.96a.113.113 0 0 0 .048-.012c.096-.048.348-.264.348-.366v-.366c0-.096-.066-.186-.138-.204l-1.632-.42c-.276-.072-.426-.348-.426-.612v-.366c0-.102.018-.222.084-.318a2.11 2.11 0 0 1 .438-.426.757.757 0 0 1 .342-.102h.882c.312 0 .57.264.738.486.048.06.096.15.168.306l-.48.138-.06-.12a1.009 1.009 0 0 0-.342-.336s-.018-.006-.042-.006h-.834c-.024 0-.036.006-.054.012-.09.042-.348.276-.348.366v.342c0 .09.06.174.132.192l1.626.432c.27.072.438.336.438.6v.408zm4.3.042a1.293 1.293 0 0 1-.168.312c-.174.216-.426.486-.738.486h-.792a.781.781 0 0 1-.348-.102 2.052 2.052 0 0 1-.432-.42.558.558 0 0 1-.09-.318v-1.98c0-.108.024-.216.09-.312.072-.102.312-.354.432-.426a.757.757 0 0 1 .342-.102h.798c.312 0 .57.264.738.486.048.06.096.15.168.306l-.48.138c-.066-.192-.258-.372-.396-.456 0 0-.024-.006-.048-.006h-.75a.12.12 0 0 0-.054.012 1.119 1.119 0 0 0-.33.324c-.012.018-.012.048-.012.078v1.932c0 .102.246.318.342.366a.12.12 0 0 0 .054.012h.75a.15.15 0 0 0 .06-.012.943.943 0 0 0 .384-.444l.48.126zm4.366-.042a.558.558 0 0 1-.09.318 2.052 2.052 0 0 1-.432.42.781.781 0 0 1-.348.102h-.948a.757.757 0 0 1-.342-.102 2.084 2.084 0 0 1-.438-.42.564.564 0 0 1-.084-.318v-1.974c0-.102.018-.222.084-.318a2.11 2.11 0 0 1 .438-.426.757.757 0 0 1 .342-.102h.948c.114 0 .252.048.348.102.12.072.36.324.432.426.066.096.09.21.09.318v1.974zm-.492-.006v-1.956a.12.12 0 0 0-.012-.054 1.052 1.052 0 0 0-.33-.324.12.12 0 0 0-.054-.012h-.9a.12.12 0 0 0-.054.012c-.096.048-.348.276-.348.378v1.956c0 .09.258.324.348.366a.12.12 0 0 0 .054.012h.9a.12.12 0 0 0 .054-.012c.096-.048.342-.264.342-.366zm5.014.816h-.534l-.846-1.5h-.828v1.5h-.492v-3.6h1.692c.138 0 .294.048.402.126.084.06.27.246.318.318a.634.634 0 0 1 .102.342v.54c0 .12-.036.234-.102.336a1.991 1.991 0 0 1-.318.318.584.584 0 0 1-.27.108l.876 1.512zm-.678-2.286v-.516c0-.012 0-.06-.006-.066-.036-.066-.21-.258-.294-.264h-1.23v1.164h1.194c.108 0 .288-.168.33-.252.006-.012.006-.054.006-.066zm4.636 2.286h-2.208v-3.6h2.208v.468h-1.716v1.098h1.62v.468h-1.62v1.098h1.716v.468z"/></g><g transform="translate(9 14)"><rect width="145" height="128" x="2" y="2" fill="#E0E0E0" rx="4"/><path fill="#191E2A" stroke="#191E2A" stroke-width=".501" d="M.251.251H144.75V127.75H.251z"/><path fill="#FFF" d="M50.916 24h-.336v-3.228l-1.026 2.262h-.234l-1.02-2.262V24h-.336v-3.6h.498l.978 2.106.984-2.106h.492V24zm4.174-3.6l-1.122 2.064V24h-.348v-1.536L52.504 20.4h.384l.906 1.71.918-1.71h.378zm6.23 1.272c0 .114-.03.222-.09.312a2.132 2.132 0 0 1-.306.312.608.608 0 0 1-.354.114h-1.272V24h-.348v-3.6h1.62c.126 0 .258.042.354.114.078.06.264.252.306.318.06.09.09.198.09.312v.528zm-.348-.012v-.504c0-.036 0-.078-.012-.102a.937.937 0 0 0-.294-.3c-.03-.018-.066-.018-.102-.018h-1.266v1.338h1.266a.197.197 0 0 0 .102-.024.899.899 0 0 0 .294-.288c.012-.024.012-.066.012-.102zM65.146 24h-2.064v-3.6h2.064v.336H63.43v1.296h1.626v.336H63.43v1.296h1.716V24zm4.294-2.328c0 .114-.03.222-.09.312a2.132 2.132 0 0 1-.306.312.567.567 0 0 1-.336.114l.894 1.59h-.396l-.888-1.59h-.9V24h-.348v-3.6h1.62c.126 0 .258.042.354.114.078.06.264.252.306.318.06.09.09.198.09.312v.528zm-.348-.012v-.504c0-.036 0-.078-.012-.102a.937.937 0 0 0-.294-.3c-.03-.018-.066-.018-.102-.018h-1.266v1.338h1.266a.197.197 0 0 0 .102-.024.899.899 0 0 0 .294-.288c.012-.024.012-.066.012-.102zm4.66 1.662a1.417 1.417 0 0 1-.138.234c-.084.114-.246.3-.372.378a.632.632 0 0 1-.306.096h-.792a.654.654 0 0 1-.312-.096 2.051 2.051 0 0 1-.408-.414.533.533 0 0 1-.078-.288V21.18c0-.102.024-.204.078-.288.066-.102.3-.354.408-.42a.632.632 0 0 1 .306-.096h.798c.096 0 .222.042.306.096.126.078.288.264.372.378.042.06.102.15.138.234l-.348.102c-.072-.168-.276-.39-.402-.456a.174.174 0 0 0-.084-.018h-.75a.15.15 0 0 0-.078.018c-.096.048-.3.24-.378.378a.192.192 0 0 0-.018.084v2.028c0 .03.006.054.018.078.078.138.282.33.378.378a.15.15 0 0 0 .078.018h.75c.03 0 .066-.006.084-.018.126-.066.318-.288.402-.45l.348.096zm3.82.678h-2.064v-3.6h2.064v.336h-1.716v1.296h1.626v.336h-1.626v1.296h1.716V24zm4.282 0h-.45l-1.566-3.072V24h-.336v-3.6h.462l1.554 3.102V20.4h.336V24zm4.096-3.264h-1.026V24h-.348v-3.264H83.55V20.4h2.4v.336zM87.964 24h-.348v-3.6h.348V24zm3.976 0h-2.028v-3.6h.348v3.264h1.68V24zm3.766 0h-2.064v-3.6h2.064v.336H93.99v1.296h1.626v.336H93.99v1.296h1.716V24zM50.4 84.008h-2.736v8.704h-.928v-8.704H44v-.896h6.4v.896zm8.464 6.64c0 .272-.064.56-.208.784-.176.272-.8.928-1.088 1.104a1.745 1.745 0 0 1-.832.256h-2.528c-.256 0-.592-.112-.816-.256-.288-.176-.928-.832-1.104-1.104-.144-.224-.192-.512-.192-.784v-5.44c0-.272.048-.56.192-.784.176-.272.816-.944 1.104-1.12.224-.144.56-.256.816-.256h2.528c.256 0 .608.112.832.256.288.176.912.848 1.088 1.12.144.224.208.512.208.784v5.44zm-.928-.016V85.24a.585.585 0 0 0-.048-.24c-.208-.368-.752-.88-1.008-1.008a.4.4 0 0 0-.208-.048h-2.384a.4.4 0 0 0-.208.048c-.256.128-.784.64-.992 1.008a.593.593 0 0 0-.064.24v5.392c0 .08.032.144.064.208.208.368.736.88.992 1.008a.4.4 0 0 0 .208.048h2.384a.4.4 0 0 0 .208-.048c.256-.128.8-.64 1.008-1.008a.443.443 0 0 0 .048-.208zm9.632-4.128c0 .304-.08.592-.24.832-.112.176-.608.672-.816.832a1.62 1.62 0 0 1-.944.304h-3.392v4.24h-.928v-9.6h4.32c.336 0 .688.112.944.304.208.16.704.672.816.848.16.24.24.528.24.832v1.408zm-.928-.032v-1.344c0-.096 0-.208-.032-.272-.144-.272-.528-.656-.784-.8-.08-.048-.176-.048-.272-.048h-3.376v3.568h3.376a.526.526 0 0 0 .272-.064c.256-.144.64-.496.784-.768.032-.064.032-.176.032-.272zm12.272 6.24h-5.408v-.896h2.32v-7.808h-2.176v-.896h3.104v8.704h2.16v.896zm8.288-1.904c0 .304-.08.592-.24.832-.112.176-.592.688-.8.848a1.67 1.67 0 0 1-.96.304h-1.856c-.256 0-.608-.112-.832-.256-.336-.208-.768-.688-.992-.992a3.968 3.968 0 0 1-.368-.64l.928-.256c.224.432.736 1.024 1.072 1.2.048.032.16.048.24.048h1.792a.586.586 0 0 0 .288-.064c.256-.144.608-.512.752-.784a.61.61 0 0 0 .048-.256v-1.824a.69.69 0 0 0-.048-.272 2.303 2.303 0 0 0-.752-.768.586.586 0 0 0-.288-.064h-3.552v-4.752h5.072v.896H82.56v2.96h2.64c.336 0 .704.128.96.32.208.16.688.64.8.816.16.24.24.528.24.832v1.872zm5.904-6.048v1.408c0 .304-.048.544-.192.768-.112.16-.464.544-.672.704-.224.16-.576.288-.896.288h-.656c-.304 0-.64-.128-.88-.288a4.548 4.548 0 0 1-.672-.704c-.144-.224-.192-.464-.192-.768V84.76c0-.304.048-.56.192-.784.112-.16.464-.544.672-.704.24-.144.576-.272.88-.272h.656c.32 0 .672.128.896.272.208.16.56.544.672.704.144.224.192.48.192.784zm-.848 1.376v-1.344c0-.112 0-.192-.016-.256v.016a2.45 2.45 0 0 0-.656-.688.491.491 0 0 0-.24-.064h-.64a.491.491 0 0 0-.24.064 2.207 2.207 0 0 0-.64.688c-.032.064-.032.144-.032.24v1.344c0 .096 0 .176.032.24.128.24.432.544.64.672.08.048.176.064.24.064h.64c.064 0 .16-.016.24-.064.208-.128.528-.448.656-.672v.016c.016-.064.016-.144.016-.256zm6.416 3.488v1.408c0 .304-.048.56-.192.784-.112.144-.464.528-.672.688-.24.16-.576.288-.896.288h-.656c-.304 0-.656-.128-.88-.288-.208-.16-.56-.544-.672-.688-.144-.224-.192-.48-.192-.784v-1.408c0-.304.048-.56.192-.784a4.49 4.49 0 0 1 .672-.688c.224-.16.576-.288.88-.288h.656c.32 0 .656.128.896.288.208.16.56.528.672.688.144.224.192.48.192.784zM97.824 91v-1.344c0-.112 0-.192-.016-.256v.016c-.128-.224-.464-.56-.656-.688a.491.491 0 0 0-.24-.064h-.64a.491.491 0 0 0-.24.064c-.224.128-.528.448-.64.688-.032.064-.032.144-.032.24V91c0 .096 0 .176.032.24.112.24.416.56.64.672.08.048.176.064.24.064h.64c.064 0 .16-.016.24-.064.192-.112.528-.448.656-.672v.016c.016-.064.016-.144.016-.256zM96.8 83.112l-5.04 9.6h-.992l5.056-9.6h.976z"/><g fill="#FED72A" fill-rule="nonzero"><path d="M72.312 63.245v-1.51c6.82 0 8.91-5.599 9.317-7.927h-3.852v-1.51h4.683c.413 0 .75.338.75.755 0 2.72-2.584 10.192-10.898 10.192zm-1.677 0c-8.314 0-10.897-7.472-10.897-10.192 0-.416.336-.754.75-.754h4.683v1.51h-3.854c.407 2.328 2.496 7.927 9.317 7.927v1.51h.001z"/><path d="M77.142 70.65c-1.506-.82-3.212-1.745-3.212-4.378 0-2.05.849-2.96 2.023-4.224 1.77-1.9 3.974-4.267 3.974-11.266A.775.775 0 0 0 79.16 50H64.768a.776.776 0 0 0-.768.783c0 7 2.203 9.365 3.974 11.266 1.175 1.263 2.023 2.175 2.023 4.225 0 2.632-1.706 3.56-3.212 4.378-1.021.556-1.986 1.08-1.986 2.146 0 .433.344.784.767.784h12.795c.423 0 .767-.351.767-.784 0-1.067-.964-1.589-1.986-2.145v-.003z"/></g></g></g></svg>